<mxfile host="65bd71144e">
    <diagram id="Z7QSbOmM9Qoh6y-JP5OQ" name="Page-1">
        <mxGraphModel dx="176" dy="4816" grid="1" gridSize="10" guides="1" tooltips="1" connect="1" arrows="1" fold="1" page="1" pageScale="1" pageWidth="1654" pageHeight="1169" background="#ffffff" math="0" shadow="1">
            <root>
                <mxCell id="0"/>
                <mxCell id="1" parent="0"/>
                <mxCell id="114" value="&lt;span style=&quot;font-size: 20px;&quot;&gt;.env&lt;/span&gt;" style="rounded=1;whiteSpace=wrap;html=1;" parent="1" vertex="1">
                    <mxGeometry x="1450" y="-4530" width="60" height="40" as="geometry"/>
                </mxCell>
                <mxCell id="50" style="edgeStyle=orthogonalEdgeStyle;html=1;strokeWidth=2;" parent="1" edge="1">
                    <mxGeometry relative="1" as="geometry">
                        <Array as="points">
                            <mxPoint x="850" y="-4560.5"/>
                            <mxPoint x="1310" y="-4560.5"/>
                        </Array>
                        <mxPoint x="850.0047393364928" y="-4590.5" as="sourcePoint"/>
                        <mxPoint x="1310.0047393364928" y="-4388.35" as="targetPoint"/>
                    </mxGeometry>
                </mxCell>
                <mxCell id="115" style="edgeStyle=orthogonalEdgeStyle;html=1;strokeWidth=2;" parent="1" source="2" target="114" edge="1">
                    <mxGeometry relative="1" as="geometry">
                        <mxPoint x="850.0047393364928" y="-4590.5" as="sourcePoint"/>
                        <mxPoint x="1480.0047393364928" y="-4540.5" as="targetPoint"/>
                        <Array as="points">
                            <mxPoint x="850" y="-4570"/>
                            <mxPoint x="1480" y="-4570"/>
                        </Array>
                    </mxGeometry>
                </mxCell>
                <mxCell id="2" value="&lt;h1&gt;&lt;b&gt;&lt;font face=&quot;Verdana&quot; style=&quot;font-size: 27px; color: rgb(255, 255, 255);&quot;&gt;Money Manager&lt;/font&gt;&lt;/b&gt;&lt;/h1&gt;" style="rounded=1;whiteSpace=wrap;html=1;fillColor=#3399FF;strokeColor=none;gradientColor=none;shadow=1;glass=1;dashed=1;" parent="1" vertex="1">
                    <mxGeometry x="690" y="-4650" width="340" height="60" as="geometry"/>
                </mxCell>
                <mxCell id="4" value="&lt;font style=&quot;font-size: 20px;&quot;&gt;&amp;nbsp; &amp;nbsp; &amp;nbsp; &amp;nbsp; Action&lt;/font&gt;" style="rounded=1;whiteSpace=wrap;html=1;shadow=1;strokeWidth=2;fillColor=#e1d5e7;strokeColor=#9673a6;" parent="1" vertex="1">
                    <mxGeometry x="90" y="-4440" width="140" height="49.7" as="geometry"/>
                </mxCell>
                <mxCell id="11" style="edgeStyle=orthogonalEdgeStyle;html=1;strokeWidth=2;rounded=1;fillColor=#dae8fc;strokeColor=light-dark(#000000, #5c79a3);jumpSize=12;" parent="1" source="2" target="4" edge="1">
                    <mxGeometry relative="1" as="geometry">
                        <mxPoint x="1176" y="-4790" as="sourcePoint"/>
                        <mxPoint x="230.04000000000002" y="-4619.6982" as="targetPoint"/>
                        <Array as="points">
                            <mxPoint x="850" y="-4570"/>
                            <mxPoint x="150" y="-4570"/>
                        </Array>
                    </mxGeometry>
                </mxCell>
                <mxCell id="14" value="&lt;font style=&quot;font-size: 18px;&quot;&gt;Compoenents&lt;/font&gt;" style="rounded=1;whiteSpace=wrap;html=1;fillColor=#f8cecc;strokeColor=#b85450;" parent="1" vertex="1">
                    <mxGeometry x="530" y="-4500" width="130" height="49.7" as="geometry"/>
                </mxCell>
                <mxCell id="16" style="edgeStyle=orthogonalEdgeStyle;html=1;rounded=1;strokeColor=light-dark(#000000, #5c79a3);strokeWidth=2;align=center;verticalAlign=middle;fontFamily=Helvetica;fontSize=11;fontColor=default;labelBackgroundColor=default;jumpSize=12;endArrow=classic;fillColor=#dae8fc;" parent="1" source="2" target="160" edge="1">
                    <mxGeometry relative="1" as="geometry">
                        <mxPoint x="1188" y="-4780" as="sourcePoint"/>
                        <mxPoint x="510.0344827586207" y="-4365.7" as="targetPoint"/>
                        <Array as="points">
                            <mxPoint x="850" y="-4570"/>
                            <mxPoint x="410" y="-4570"/>
                        </Array>
                    </mxGeometry>
                </mxCell>
                <mxCell id="18" style="edgeStyle=orthogonalEdgeStyle;html=1;rounded=1;strokeColor=light-dark(#000000, #5c79a3);strokeWidth=2;align=center;verticalAlign=middle;fontFamily=Helvetica;fontSize=11;fontColor=default;labelBackgroundColor=default;jumpSize=12;endArrow=classic;fillColor=#dae8fc;" parent="1" edge="1">
                    <mxGeometry relative="1" as="geometry">
                        <mxPoint x="849.996993006993" y="-4590" as="sourcePoint"/>
                        <mxPoint x="599.9969930069931" y="-4500" as="targetPoint"/>
                        <Array as="points">
                            <mxPoint x="849.99" y="-4560"/>
                            <mxPoint x="599.99" y="-4560"/>
                        </Array>
                    </mxGeometry>
                </mxCell>
                <mxCell id="28" value="&lt;font style=&quot;font-size: 20px;&quot;&gt;Data&lt;/font&gt;" style="rounded=1;whiteSpace=wrap;html=1;fillColor=#b0e3e6;strokeColor=#0e8088;" parent="1" vertex="1">
                    <mxGeometry x="790" y="-4499.999999999999" width="130" height="49.7" as="geometry"/>
                </mxCell>
                <mxCell id="29" style="edgeStyle=orthogonalEdgeStyle;html=1;rounded=1;strokeColor=light-dark(#000000, #5c79a3);strokeWidth=2;align=center;verticalAlign=middle;fontFamily=Helvetica;fontSize=11;fontColor=default;labelBackgroundColor=default;jumpSize=12;endArrow=classic;fillColor=#dae8fc;" parent="1" source="2" target="28" edge="1">
                    <mxGeometry relative="1" as="geometry">
                        <mxPoint x="1208" y="-4780" as="sourcePoint"/>
                        <mxPoint x="790" y="-4620" as="targetPoint"/>
                        <Array as="points">
                            <mxPoint x="850" y="-4560"/>
                            <mxPoint x="850" y="-4560"/>
                        </Array>
                    </mxGeometry>
                </mxCell>
                <mxCell id="43" value="&#39;" style="rounded=1;whiteSpace=wrap;html=1;fillColor=#647687;fontColor=#FFFFFF;strokeColor=#314354;" parent="1" vertex="1">
                    <mxGeometry x="1348" y="-4004" width="130" height="49.7" as="geometry"/>
                </mxCell>
                <mxCell id="44" value="&lt;font style=&quot;font-size: 20px;&quot;&gt;Emails&lt;/font&gt;" style="rounded=1;whiteSpace=wrap;html=1;fillColor=light-dark(#fbb623, #ededed);" parent="1" vertex="1">
                    <mxGeometry x="1030" y="-4364" width="130" height="49.7" as="geometry"/>
                </mxCell>
                <mxCell id="45" value="&lt;font style=&quot;font-size: 20px;&quot;&gt;Prisma&lt;/font&gt;" style="rounded=1;whiteSpace=wrap;html=1;fillColor=light-dark(#0aff81, #ededed);" parent="1" vertex="1">
                    <mxGeometry x="1265" y="-4387.85" width="130" height="49.7" as="geometry"/>
                </mxCell>
                <mxCell id="48" style="edgeStyle=orthogonalEdgeStyle;html=1;strokeWidth=2;" parent="1" target="44" edge="1">
                    <mxGeometry relative="1" as="geometry">
                        <Array as="points">
                            <mxPoint x="850" y="-4560"/>
                            <mxPoint x="1080" y="-4560"/>
                        </Array>
                        <mxPoint x="850.0047393364928" y="-4590.5" as="sourcePoint"/>
                        <mxPoint x="1080.0047393364928" y="-4364.5" as="targetPoint"/>
                    </mxGeometry>
                </mxCell>
                <mxCell id="49" style="edgeStyle=orthogonalEdgeStyle;html=1;strokeWidth=2;" parent="1" target="43" edge="1">
                    <mxGeometry relative="1" as="geometry">
                        <Array as="points">
                            <mxPoint x="850" y="-4560"/>
                            <mxPoint x="1210" y="-4560"/>
                            <mxPoint x="1210" y="-4081"/>
                            <mxPoint x="1410" y="-4081"/>
                        </Array>
                        <mxPoint x="850.0047393364928" y="-4590.5" as="sourcePoint"/>
                        <mxPoint x="1384.8" y="-3920.003" as="targetPoint"/>
                    </mxGeometry>
                </mxCell>
                <mxCell id="112" value="&lt;font style=&quot;font-size: 20px;&quot;&gt;Public&lt;/font&gt;" style="rounded=1;whiteSpace=wrap;html=1;aspect=fixed;" parent="1" vertex="1">
                    <mxGeometry x="1370" y="-4470" width="80" height="40" as="geometry"/>
                </mxCell>
                <mxCell id="113" style="edgeStyle=orthogonalEdgeStyle;html=1;strokeWidth=2;" parent="1" target="112" edge="1">
                    <mxGeometry relative="1" as="geometry">
                        <Array as="points">
                            <mxPoint x="850" y="-4570"/>
                            <mxPoint x="1410" y="-4570"/>
                        </Array>
                        <mxPoint x="849.9947393364928" y="-4590" as="sourcePoint"/>
                        <mxPoint x="1409.9947393364928" y="-4480" as="targetPoint"/>
                    </mxGeometry>
                </mxCell>
                <mxCell id="117" value="" style="shadow=1;strokeWidth=2;rounded=1;absoluteArcSize=1;arcSize=2;fontSize=13;textShadow=0;fillColor=#f5f5f5;fontColor=#333333;strokeColor=#666666;" parent="1" vertex="1">
                    <mxGeometry x="20" y="-4350" width="110" height="44" as="geometry"/>
                </mxCell>
                <mxCell id="118" value="account.js" style="dashed=0;connectable=0;shape=mxgraph.gcp2.virtual_file_system;part=1;labelPosition=right;verticalLabelPosition=middle;align=left;verticalAlign=middle;spacingLeft=5;fontSize=13;shadow=1;strokeWidth=2;textShadow=0;fillColor=#e1d5e7;strokeColor=#9673a6;" parent="117" vertex="1">
                    <mxGeometry y="0.5" width="32" height="32" relative="1" as="geometry">
                        <mxPoint x="5" y="-16" as="offset"/>
                    </mxGeometry>
                </mxCell>
                <mxCell id="119" value="" style="shadow=1;strokeWidth=2;rounded=1;absoluteArcSize=1;arcSize=2;fontSize=13;textShadow=0;fillColor=#f5f5f5;fontColor=#333333;strokeColor=#666666;" parent="1" vertex="1">
                    <mxGeometry x="40" y="-4260" width="110" height="44" as="geometry"/>
                </mxCell>
                <mxCell id="120" value="seed.js" style="dashed=0;connectable=0;shape=mxgraph.gcp2.virtual_file_system;part=1;labelPosition=right;verticalLabelPosition=middle;align=left;verticalAlign=middle;spacingLeft=5;fontSize=13;shadow=1;strokeWidth=2;textShadow=0;fillColor=#e1d5e7;strokeColor=#9673a6;" parent="119" vertex="1">
                    <mxGeometry y="0.5" width="32" height="32" relative="1" as="geometry">
                        <mxPoint x="5" y="-16" as="offset"/>
                    </mxGeometry>
                </mxCell>
                <mxCell id="134" style="edgeStyle=orthogonalEdgeStyle;html=1;shadow=1;strokeWidth=2;fontColor=default;fillColor=#e1d5e7;strokeColor=#9673a6;" parent="1" source="124" target="4" edge="1">
                    <mxGeometry relative="1" as="geometry"/>
                </mxCell>
                <mxCell id="124" value="" style="shadow=1;strokeWidth=2;rounded=1;absoluteArcSize=1;arcSize=2;fontSize=13;textShadow=0;fillColor=#f5f5f5;fontColor=#333333;strokeColor=#666666;" parent="1" vertex="1">
                    <mxGeometry x="220" y="-4360.000000000001" width="110" height="44" as="geometry"/>
                </mxCell>
                <mxCell id="125" value="budget.js" style="dashed=0;connectable=0;shape=mxgraph.gcp2.virtual_file_system;part=1;labelPosition=right;verticalLabelPosition=middle;align=left;verticalAlign=middle;spacingLeft=5;fontSize=13;shadow=1;strokeWidth=2;textShadow=0;fillColor=#e1d5e7;strokeColor=#9673a6;" parent="124" vertex="1">
                    <mxGeometry y="0.5" width="32" height="32" relative="1" as="geometry">
                        <mxPoint x="5" y="-16" as="offset"/>
                    </mxGeometry>
                </mxCell>
                <mxCell id="126" value="" style="shadow=1;strokeWidth=2;rounded=1;absoluteArcSize=1;arcSize=2;fontSize=13;textShadow=0;fillColor=#f5f5f5;fontColor=#333333;strokeColor=#666666;" parent="1" vertex="1">
                    <mxGeometry x="220" y="-4296" width="120" height="44" as="geometry"/>
                </mxCell>
                <mxCell id="127" value="dashbord.js" style="dashed=0;connectable=0;shape=mxgraph.gcp2.virtual_file_system;part=1;labelPosition=right;verticalLabelPosition=middle;align=left;verticalAlign=middle;spacingLeft=5;fontSize=13;shadow=1;strokeWidth=2;textShadow=0;fillColor=#e1d5e7;strokeColor=#9673a6;" parent="126" vertex="1">
                    <mxGeometry y="0.5" width="32" height="32" relative="1" as="geometry">
                        <mxPoint x="5" y="-16" as="offset"/>
                    </mxGeometry>
                </mxCell>
                <mxCell id="138" style="edgeStyle=orthogonalEdgeStyle;html=1;shadow=1;strokeWidth=2;fontColor=default;fillColor=#e1d5e7;strokeColor=#9673a6;" parent="1" source="128" target="4" edge="1">
                    <mxGeometry relative="1" as="geometry">
                        <Array as="points">
                            <mxPoint x="160" y="-4138"/>
                        </Array>
                    </mxGeometry>
                </mxCell>
                <mxCell id="128" value="" style="shadow=1;strokeWidth=2;rounded=1;absoluteArcSize=1;arcSize=2;fontSize=13;textShadow=0;fillColor=#f5f5f5;fontColor=#333333;strokeColor=#666666;" parent="1" vertex="1">
                    <mxGeometry x="20" y="-4160" width="130" height="44" as="geometry"/>
                </mxCell>
                <mxCell id="129" value="transaction.js" style="dashed=0;connectable=0;shape=mxgraph.gcp2.virtual_file_system;part=1;labelPosition=right;verticalLabelPosition=middle;align=left;verticalAlign=middle;spacingLeft=5;fontSize=13;shadow=1;strokeWidth=2;textShadow=0;fillColor=#e1d5e7;strokeColor=#9673a6;" parent="128" vertex="1">
                    <mxGeometry y="0.5" width="32" height="32" relative="1" as="geometry">
                        <mxPoint x="5" y="-16" as="offset"/>
                    </mxGeometry>
                </mxCell>
                <mxCell id="137" style="edgeStyle=orthogonalEdgeStyle;html=1;shadow=1;strokeWidth=2;fontColor=default;fillColor=#e1d5e7;strokeColor=#9673a6;" parent="1" source="130" target="4" edge="1">
                    <mxGeometry relative="1" as="geometry">
                        <Array as="points">
                            <mxPoint x="160" y="-4194"/>
                        </Array>
                    </mxGeometry>
                </mxCell>
                <mxCell id="130" value="" style="shadow=1;strokeWidth=2;rounded=1;absoluteArcSize=1;arcSize=2;fontSize=13;textShadow=0;fillColor=#f5f5f5;fontColor=#333333;strokeColor=#666666;" parent="1" vertex="1">
                    <mxGeometry x="210" y="-4216" width="130" height="44" as="geometry"/>
                </mxCell>
                <mxCell id="131" value="send-email.js" style="dashed=0;connectable=0;shape=mxgraph.gcp2.virtual_file_system;part=1;labelPosition=right;verticalLabelPosition=middle;align=left;verticalAlign=middle;spacingLeft=5;fontSize=13;shadow=1;strokeWidth=2;textShadow=0;fillColor=#e1d5e7;strokeColor=#9673a6;" parent="130" vertex="1">
                    <mxGeometry y="0.5" width="32" height="32" relative="1" as="geometry">
                        <mxPoint x="5" y="-16" as="offset"/>
                    </mxGeometry>
                </mxCell>
                <mxCell id="132" style="edgeStyle=orthogonalEdgeStyle;html=1;shadow=1;strokeWidth=2;fontColor=default;fillColor=#e1d5e7;strokeColor=#9673a6;" parent="1" source="117" target="4" edge="1">
                    <mxGeometry relative="1" as="geometry"/>
                </mxCell>
                <mxCell id="133" style="edgeStyle=orthogonalEdgeStyle;html=1;shadow=1;strokeWidth=2;fontColor=default;fillColor=#e1d5e7;strokeColor=#9673a6;" parent="1" source="119" target="4" edge="1">
                    <mxGeometry relative="1" as="geometry">
                        <Array as="points">
                            <mxPoint x="123" y="-4290"/>
                            <mxPoint x="160" y="-4290"/>
                        </Array>
                    </mxGeometry>
                </mxCell>
                <mxCell id="136" style="edgeStyle=orthogonalEdgeStyle;html=1;shadow=1;strokeWidth=2;fontColor=default;fillColor=#e1d5e7;strokeColor=#9673a6;" parent="1" source="126" target="4" edge="1">
                    <mxGeometry relative="1" as="geometry">
                        <mxPoint x="160" y="-4370" as="targetPoint"/>
                        <Array as="points">
                            <mxPoint x="160" y="-4274"/>
                        </Array>
                    </mxGeometry>
                </mxCell>
                <mxCell id="148" value="" style="editableCssRules=.*;html=1;fontColor=#999999;shape=image;verticalLabelPosition=middle;verticalAlign=middle;labelPosition=right;align=left;spacingLeft=20;part=1;points=[];imageAspect=0;image=data:image/svg+xml,PHN2ZyB4bWxucz0iaHR0cDovL3d3dy53My5vcmcvMjAwMC9zdmciIHhtbG5zOnY9Imh0dHBzOi8vdmVjdGEuaW8vbmFubyIgd2lkdGg9IjIwIiBoZWlnaHQ9IjE2LjAyMDAwMDQ1Nzc2MzY3MiIgZmlsbC1ydWxlPSJldmVub2RkIiB2aWV3Qm94PSI4Ljk0MDY5NjcxNjMwODU5NGUtOCAwIDIwIDE2LjAyMDAwMDQ1Nzc2MzY3MiI+JiN4YTsJPHN0eWxlIHR5cGU9InRleHQvY3NzIj4mI3hhOwkuc3Qwe2ZpbGw6IzQyODVmNDt9JiN4YTsJLnN0MXtmaWxsOiNhZWNiZmE7fSYjeGE7CS5zdDJ7ZmlsbDojNjY5ZGY2O30mI3hhOwk8L3N0eWxlPiYjeGE7CTxwYXRoIGNsYXNzPSJzdDAiIGQ9Ik0xMi4zIDcuMjZsLTEuMjIgMS4yMkExLjcxIDEuNzEgMCAwIDEgMTAgMTEuNDlhMS43NCAxLjc0IDAgMCAxLTEuMzMtLjY0bC0xLjIyIDEuMjJhMy40MyAzLjQzIDAgMCAwIDUuOTg0LTEuMzgxQTMuNDMgMy40MyAwIDAgMCAxMi4zIDcuMjZ6Ii8+JiN4YTsJPHBhdGggY2xhc3M9InN0MSIgZD0iTTEwIDMuNTJhNi4yNSA2LjI1IDAgMCAwIDAgMTIuNSA2LjI1IDYuMjUgMCAwIDAgMC0xMi41bTAgMTAuNzRhNC40NSA0LjQ1IDAgMCAxLTMuMTU3LTcuNTk3QTQuNDUgNC40NSAwIDAgMSAxNC40NCA5LjgyIDQuNDQgNC40NCAwIDAgMSAxMCAxNC4yNiIvPiYjeGE7CTxwYXRoIGNsYXNzPSJzdDIiIGQ9Ik0xOS42MiA5LjE2bC0yLjU2LS44MWE3LjEgNy4xIDAgMCAxIC4xNyAxLjUzIDcuNjIgNy42MiAwIDAgMS0uMDggMS4wOGgyLjQ3YS40NC40NCAwIDAgMCAuMzgtLjQydi0xYS40NC40NCAwIDAgMC0uMzgtLjQyTTEwIDIuNzhhNy40OCA3LjQ4IDAgMCAxIDEuNS4xNUwxMC41OC4zOGMtLjA3LS4yMi0uMjEtLjM4LS40Mi0uMzhoLS4zOGEuNDUuNDUgMCAwIDAtLjQyLjM4bC0uOCAyLjU0QTcuNjQgNy42NCAwIDAgMSAxMCAyLjc4bS03LjIzIDcuMWE3LjEgNy4xIDAgMCAxIC4xNy0xLjUzbC0yLjU2LjgxYS40NC40NCAwIDAgMC0uMzguNDJ2MWEuNDQuNDQgMCAwIDAgLjM4LjQyaDIuNDdhNy42MiA3LjYyIDAgMCAxLS4wOC0xLjA4Ii8+JiN4YTsJPHBhdGggY2xhc3M9InN0MSIgZD0iTTEwIDcuMjZhMi41IDIuNSAwIDEgMCAwIDUgMi41IDIuNSAwIDEgMCAwLTV6bTAgMy43NWExLjI1IDEuMjUgMCAxIDEgMC0yLjUgMS4yNSAxLjI1IDAgMCAxIDEuMjUgMS4yNUExLjI1IDEuMjUgMCAwIDEgMTAgMTEuMDJ6Ii8+JiN4YTs8L3N2Zz4=;rotation=-180;" parent="1" vertex="1">
                    <mxGeometry x="110" y="-4427.15" width="33.94" height="27.15" as="geometry"/>
                </mxCell>
                <mxCell id="158" value="" style="strokeColor=#82B366;shadow=1;strokeWidth=2;rounded=1;absoluteArcSize=1;arcSize=18;fillColor=#d5e8d4;perimeterSpacing=0;" parent="1" vertex="1">
                    <mxGeometry x="20" y="-4004" width="130" height="54" as="geometry"/>
                </mxCell>
                <mxCell id="159" value="&lt;font style=&quot;font-size: 17px;&quot; color=&quot;#000000&quot;&gt;Auth&lt;/font&gt;" style="editableCssRules=.*;html=1;shape=image;verticalLabelPosition=middle;verticalAlign=middle;labelPosition=right;align=left;spacingLeft=20;part=1;points=[];imageAspect=0;image=data:image/svg+xml,PHN2ZyB4bWxucz0iaHR0cDovL3d3dy53My5vcmcvMjAwMC9zdmciIHhtbG5zOnY9Imh0dHBzOi8vdmVjdGEuaW8vbmFubyIgd2lkdGg9IjE2LjQyMDAwMDA3NjI5Mzk0NSIgaGVpZ2h0PSIyMC4wNDk5OTkyMzcwNjA1NDciIGZpbGwtcnVsZT0iZXZlbm9kZCIgdmlld0JveD0iMCAwIDE2LjQyMDAwMDA3NjI5Mzk0NSAyMC4wNDk5OTkyMzcwNjA1NDciPiYjeGE7CTxzdHlsZSB0eXBlPSJ0ZXh0L2NzcyI+JiN4YTsJLnN0MHtmaWxsOiM0Mjg1ZjQ7fSYjeGE7CS5zdDF7ZmlsbDojNjY5ZGY2O30mI3hhOwk8L3N0eWxlPiYjeGE7CTxwYXRoIGNsYXNzPSJzdDEiIGQ9Ik04LjIxIDBMMCAzLjQydjUuNjNjMCA1LjA2IDMuNSA5LjggOC4yMSAxMSA0LjcxLTEuMTUgOC4yMS01Ljg5IDguMjEtMTAuOTVWMy40MnptMCAzLjc5YTIuNjMgMi42MyAwIDAgMSAxLjAwNSA1LjA2QTIuNjMgMi42MyAwIDAgMSA2LjM1IDQuNTZhMi42MyAyLjYzIDAgMCAxIDEuODYtLjc3em00LjExIDExLjE1YTguNjQgOC42NCAwIDAgMS00LjExIDIuOTMgOC42NCA4LjY0IDAgMCAxLTQuMTEtMi45M3YtMi4yNWMwLTEuNjcgMi43NC0yLjUyIDQuMTEtMi41MnM0LjExLjg1IDQuMTEgMi41MnoiLz4mI3hhOwk8cGF0aCBjbGFzcz0ic3QwIiBkPSJNOC4yMSAwdjMuNzlhMi42MyAyLjYzIDAgMSAxIDAgNS4yNnYxLjEyYzEuMzcgMCA0LjExLjg1IDQuMTEgMi41MnYyLjI1YTguNjQgOC42NCAwIDAgMS00LjExIDIuOTNWMjBjNC43MS0xLjE1IDguMjEtNS44OSA4LjIxLTEwLjk1VjMuNDJ6Ii8+JiN4YTs8L3N2Zz4=;fillColor=#d5e8d4;strokeColor=#82B366;strokeWidth=2;perimeterSpacing=0;shadow=1;" parent="158" vertex="1">
                    <mxGeometry width="24" height="30" relative="1" as="geometry">
                        <mxPoint x="18" y="15" as="offset"/>
                    </mxGeometry>
                </mxCell>
                <mxCell id="160" value="" style="strokeColor=#82b366;shadow=1;strokeWidth=2;rounded=1;absoluteArcSize=1;arcSize=20;fillColor=#d5e8d4;" parent="1" vertex="1">
                    <mxGeometry x="350" y="-4160" width="150" height="50" as="geometry"/>
                </mxCell>
                <mxCell id="161" value="&lt;font style=&quot;font-size: 20px;&quot;&gt;APP&lt;/font&gt;" style="editableCssRules=.*;html=1;fontColor=#999999;shape=image;verticalLabelPosition=middle;verticalAlign=middle;labelPosition=right;align=left;spacingLeft=20;part=1;points=[];imageAspect=0;image=data:image/svg+xml,PHN2ZyB4bWxucz0iaHR0cDovL3d3dy53My5vcmcvMjAwMC9zdmciIHhtbG5zOnY9Imh0dHBzOi8vdmVjdGEuaW8vbmFubyIgd2lkdGg9IjIwIiBoZWlnaHQ9IjE3LjI3OTk5ODc3OTI5Njg3NSIgdmlld0JveD0iMCAwIDIwIDE3LjI3OTk5ODc3OTI5Njg3NSI+JiN4YTsJPHN0eWxlIHR5cGU9InRleHQvY3NzIj4mI3hhOwkuc3Qwe2ZpbGw6IzQyODVmNDt9JiN4YTsJLnN0MXtmaWxsOiM2NjlkZjY7fSYjeGE7CTwvc3R5bGU+JiN4YTsJPGNpcmNsZSBjbGFzcz0ic3QwIiBjeD0iOS40NCIgY3k9IjguMTQiIHI9IjIuOTciLz4mI3hhOwk8ZyBjbGFzcz0ic3QxIj4mI3hhOwkJPGNpcmNsZSBjeD0iMi4wMiIgY3k9IjcuNDMiIHI9IjIuMDIiLz4mI3hhOwkJPGNpcmNsZSBjeD0iMTIuNTIiIGN5PSIxNS4yNiIgcj0iMi4wMiIvPiYjeGE7CQk8cGF0aCBkPSJNMTcuNTcuODRBMi40MyAyLjQzIDAgMSAwIDIwIDMuMjcgMi40MyAyLjQzIDAgMCAwIDE3LjU3Ljg0em0wIDMuOGExLjM3IDEuMzcgMCAxIDEgMS4zNi0xLjM3aDBhMS4zNyAxLjM3IDAgMCAxLTEuMzYgMS4zN3oiLz4mI3hhOwkJPHBhdGggZD0iTTE2LjIgMy4zMkE4LjI5IDguMjkgMCAwIDAgMTEuMTQgMGwtLjI4IDEuMzRhNi45NSA2Ljk1IDAgMSAxLTguMjIgNS4zOCA2Ljg4IDYuODggMCAwIDEgMS44Ny0zLjQ3bC0xLTFhOC4zMSA4LjMxIDAgMSAwIDEzLjM4IDIuMiAxLjM2IDEuMzYgMCAwIDEtLjY5LTEuMTN6Ii8+JiN4YTsJPC9nPiYjeGE7PC9zdmc+;strokeWidth=2;shadow=1;" parent="160" vertex="1">
                    <mxGeometry width="30" height="24" relative="1" as="geometry">
                        <mxPoint x="15" y="18" as="offset"/>
                    </mxGeometry>
                </mxCell>
                <mxCell id="198" style="edgeStyle=orthogonalEdgeStyle;html=1;exitX=0.5;exitY=0;exitDx=0;exitDy=0;fillColor=#d5e8d4;strokeColor=#82b366;strokeWidth=2;" parent="1" source="172" target="160" edge="1">
                    <mxGeometry relative="1" as="geometry">
                        <mxPoint x="377.5" y="-4224" as="targetPoint"/>
                        <Array as="points">
                            <mxPoint x="375" y="-4020"/>
                            <mxPoint x="425" y="-4020"/>
                        </Array>
                    </mxGeometry>
                </mxCell>
                <mxCell id="172" value="" style="strokeColor=#82B366;shadow=1;strokeWidth=2;rounded=1;absoluteArcSize=1;arcSize=25;fillColor=#d5e8d4;perimeterSpacing=0;" parent="1" vertex="1">
                    <mxGeometry x="310" y="-3734" width="130" height="54" as="geometry"/>
                </mxCell>
                <mxCell id="173" value="&lt;font style=&quot;font-size: 17px;&quot; color=&quot;#000000&quot;&gt;Main&lt;/font&gt;" style="editableCssRules=.*;html=1;shape=image;verticalLabelPosition=middle;verticalAlign=middle;labelPosition=right;align=left;spacingLeft=20;part=1;points=[];imageAspect=0;image=data:image/svg+xml,PHN2ZyB4bWxucz0iaHR0cDovL3d3dy53My5vcmcvMjAwMC9zdmciIHhtbG5zOnY9Imh0dHBzOi8vdmVjdGEuaW8vbmFubyIgd2lkdGg9IjMyOS45MjU5OTcyMzE3OTM4IiBoZWlnaHQ9IjM3OC4yODQ5OTAzMTEyNzg4IiB2aWV3Qm94PSIwIDAgODcuMjkyOTk5MjY3NTc4MTIgMTAwLjA4Nzk5NzQzNjUyMzQ0Ij4mI3hhOzxzdHlsZSB0eXBlPSJ0ZXh0L2NzcyI+JiN4YTsJLnN0MHtmaWxsOiNhZWNiZmE7fSYjeGE7CS5zdDF7ZmlsbDojNjY5ZGY2O30mI3hhOwkuc3Qye2ZpbGw6IzQyODVmNDt9JiN4YTs8L3N0eWxlPiYjeGE7CTxwYXRoIGNsYXNzPSJzdDAiIGQ9Ik00My43NTEgMEwwIDI1LjQ2NXYyLjU4OCA0Ni45Mmw0My43NTIgMjUuMTE1IDQzLjU0MS0yNS4xMjFWMjUuNDczem0yLjQzOCAxMS44NTNsMzIuMTAzIDE4Ljc4MlY2OS43N0w0My43MzkgODkuNzA1IDkgNjkuNzYyVjMwLjY0MWwzMi4xOS0xOC43MzZ2MTQuMTU0TDI0LjUwMyAzNi4xNTNsMTkuMTcyIDExLjUwMiAxOC44ODYtMTEuNTU0LTE2LjM3Mi0xMC4wMjR6Ii8+JiN4YTsJPHBhdGggY2xhc3M9InN0MSIgZD0iTTIyLjAyNSA0MC40OTZsLjE2NiAxOS4xNDMtMTMuMjQ3IDcuMzN2Mi43NDJsMi42MzcgMS41MTQgMTIuNjQ4LTYuOTk5IDE2Ljk2MSAxMC42MDJWNTEuOTkzeiIvPiYjeGE7CTxwYXRoIGNsYXNzPSJzdDIiIGQ9Ik02NS4zNDQgNDAuMjZMNDYuMTg5IDUxLjk3OXYyMi44NDdsMTYuODk5LTEwLjU3NiAxMi41MzkgNi45NzQgMi42MDktMS41MDV2LTIuNzY1bC0xMi43ODQtNy4xMTJ6Ii8+JiN4YTs8L3N2Zz4=;fillColor=#d5e8d4;strokeColor=#82B366;strokeWidth=2;perimeterSpacing=0;shadow=1;" parent="172" vertex="1">
                    <mxGeometry width="26" height="30" relative="1" as="geometry">
                        <mxPoint x="17" y="15" as="offset"/>
                    </mxGeometry>
                </mxCell>
                <mxCell id="199" style="edgeStyle=orthogonalEdgeStyle;html=1;fillColor=#d5e8d4;strokeColor=#82b366;strokeWidth=2;" parent="1" source="174" target="160" edge="1">
                    <mxGeometry relative="1" as="geometry">
                        <mxPoint x="377.5" y="-4224" as="targetPoint"/>
                        <Array as="points">
                            <mxPoint x="500" y="-4020"/>
                            <mxPoint x="425" y="-4020"/>
                        </Array>
                    </mxGeometry>
                </mxCell>
                <mxCell id="174" value="" style="strokeColor=#82B366;shadow=1;strokeWidth=2;rounded=1;absoluteArcSize=1;arcSize=11;fillColor=#d5e8d4;perimeterSpacing=0;" parent="1" vertex="1">
                    <mxGeometry x="438" y="-3950" width="130" height="54" as="geometry"/>
                </mxCell>
                <mxCell id="175" value="&lt;font style=&quot;font-size: 17px;&quot;&gt;API&lt;/font&gt;" style="editableCssRules=.*;html=1;shape=image;verticalLabelPosition=middle;verticalAlign=middle;labelPosition=right;align=left;spacingLeft=20;part=1;points=[];imageAspect=0;image=data:image/svg+xml,PHN2ZyB4bWxucz0iaHR0cDovL3d3dy53My5vcmcvMjAwMC9zdmciIHhtbG5zOnY9Imh0dHBzOi8vdmVjdGEuaW8vbmFubyIgd2lkdGg9IjIwIiBoZWlnaHQ9IjE5LjI5OTk5OTIzNzA2MDU0NyIgdmlld0JveD0iMCAwIDIwIDE5LjI5OTk5OTIzNzA2MDU0NyI+JiN4YTsJPHN0eWxlIHR5cGU9InRleHQvY3NzIj4mI3hhOwkuc3Qwe2ZpbGw6IzQyODVmNDt9JiN4YTsJLnN0MXtmaWxsOiM2NjlkZjY7fSYjeGE7CTwvc3R5bGU+JiN4YTsJPHBhdGggY2xhc3M9InN0MCIgZD0iTTIuNDMgNi4xSDBWMi42N2gzLjk0bDguNCAxMC40OWgyLjM0di0yLjcyTDIwIDE0Ljg3bC01LjMyIDQuNDN2LTIuNzFoLTMuODd6Ii8+JiN4YTsJPHBhdGggY2xhc3M9InN0MSIgZD0iTTE0LjY4IDYuMTR2Mi43MkwyMCA0LjQzIDE0LjY4IDB2Mi43MWgtMy44N0w4LjMzIDUuODJsMi4xMyAyLjY3IDEuODgtMi4zNXpNMCAxMy4ydjMuNDNoMy45NGwyLjUyLTMuMTUtMi4xMy0yLjY3LTEuOSAyLjM5eiIvPiYjeGE7PC9zdmc+;fillColor=#d5e8d4;strokeColor=#82B366;strokeWidth=2;perimeterSpacing=0;shadow=1;" parent="174" vertex="1">
                    <mxGeometry width="30" height="28" relative="1" as="geometry">
                        <mxPoint x="15" y="16" as="offset"/>
                    </mxGeometry>
                </mxCell>
                <mxCell id="200" style="edgeStyle=orthogonalEdgeStyle;html=1;fillColor=#d5e8d4;strokeColor=#82b366;strokeWidth=2;" parent="1" source="178" target="160" edge="1">
                    <mxGeometry relative="1" as="geometry">
                        <mxPoint x="377.5" y="-4224" as="targetPoint"/>
                        <Array as="points">
                            <mxPoint x="685" y="-4050"/>
                            <mxPoint x="425" y="-4050"/>
                        </Array>
                    </mxGeometry>
                </mxCell>
                <mxCell id="178" value="" style="strokeColor=#82B366;shadow=1;strokeWidth=2;rounded=1;absoluteArcSize=1;arcSize=9;fillColor=#d5e8d4;perimeterSpacing=0;" parent="1" vertex="1">
                    <mxGeometry x="620" y="-3884" width="130" height="54" as="geometry"/>
                </mxCell>
                <mxCell id="179" value="&lt;font style=&quot;font-size: 17px;&quot; color=&quot;#000000&quot;&gt;Lib&lt;/font&gt;" style="editableCssRules=.*;html=1;shape=image;verticalLabelPosition=middle;verticalAlign=middle;labelPosition=right;align=left;spacingLeft=20;part=1;points=[];imageAspect=0;image=data:image/svg+xml,PHN2ZyB4bWxucz0iaHR0cDovL3d3dy53My5vcmcvMjAwMC9zdmciIHhtbG5zOnY9Imh0dHBzOi8vdmVjdGEuaW8vbmFubyIgd2lkdGg9IjIwIiBoZWlnaHQ9IjExLjI1OTk5OTI3NTIwNzUyIiBmaWxsLXJ1bGU9ImV2ZW5vZGQiIHZpZXdCb3g9IjAgMCAyMCAxMS4yNTk5OTkyNzUyMDc1MiI+JiN4YTsJPHN0eWxlIHR5cGU9InRleHQvY3NzIj4mI3hhOwkuc3Qwe2ZpbGw6IzQyODVmNDt9JiN4YTsJLnN0MXtmaWxsOiM2NjlkZjY7fSYjeGE7CS5zdDJ7ZmlsbDojYWVjYmZhO30mI3hhOwk8L3N0eWxlPiYjeGE7CTxwYXRoIGNsYXNzPSJzdDEiIGQ9Ik00LjY4IDEuNDJIMi40MkwwIDUuNjdsMi40MiA0LjI2aDIuMjZMMi4yNyA1LjY3eiIvPiYjeGE7CTxwYXRoIGNsYXNzPSJzdDAiIGQ9Ik0wIDUuNjdsMS4xMSAxLjk3IDEuNDYtMS40NS0uMy0uNTJ6Ii8+JiN4YTsJPHBhdGggY2xhc3M9InN0MiIgZD0iTTEzIDBINy4xMkwzLjgxIDUuNjNsMy4zMSA1LjU5SDEzbDMuMjktNS41OXptLTIuOTMgOC4zNmEyLjY0IDIuNjQgMCAxIDEgMi42Ni0yLjY0IDIuNjUgMi42NSAwIDAgMS0yLjY2IDIuNjR6TTIuNDIgMS40MkwwIDUuNjlsMS4xMSAxLjk3IDEuMTYtMS45NyAyLjQxLTQuMjd6Ii8+JiN4YTsJPHBhdGggY2xhc3M9InN0MSIgZD0iTTEzIC4wOGgwbC0xLjcgMy4zM2EyLjY2IDIuNjYgMCAwIDEtMS4yNSA1IDIuNjIgMi42MiAwIDAgMS0xLjE4LS4yN2wtMS43NSAzLjEySDEzbDMuMjktNS42M3ptMi4zMiA5Ljg1aDIuMjdMMjAgNS42N2wtMi40MS00LjI1aC0yLjI3bDIuNDEgNC4yNXoiPiYjeGE7CTxwYXRoIGNsYXNzPSJzdDAiIGQ9Ik0yMCA1LjY3TDE4Ljg5IDMuN2wtMS40NiAxLjQ2LjMuNTF6Ii8+JiN4YTsJPHBhdGggY2xhc3M9InN0MiIgZD0iTTE3LjU5IDkuOTNMMjAgNS42NWwtMS4xMS0xLjk3LTEuMTYgMS45Ny0yLjQxIDQuMjh6Ii8+JiN4YTs8L3BhdGg+PC9zdmc+;fillColor=#d5e8d4;strokeColor=#82B366;strokeWidth=2;perimeterSpacing=0;shadow=1;" parent="178" vertex="1">
                    <mxGeometry width="30" height="16" relative="1" as="geometry">
                        <mxPoint x="15" y="22" as="offset"/>
                    </mxGeometry>
                </mxCell>
                <mxCell id="201" style="edgeStyle=orthogonalEdgeStyle;html=1;entryX=0.5;entryY=1;entryDx=0;entryDy=0;fillColor=#d5e8d4;strokeColor=#82b366;strokeWidth=2;" parent="1" source="180" target="160" edge="1">
                    <mxGeometry relative="1" as="geometry">
                        <Array as="points">
                            <mxPoint x="795" y="-4050"/>
                            <mxPoint x="425" y="-4050"/>
                        </Array>
                    </mxGeometry>
                </mxCell>
                <mxCell id="180" value="" style="strokeColor=#82B366;shadow=1;strokeWidth=2;rounded=1;absoluteArcSize=1;arcSize=13;fillColor=#d5e8d4;perimeterSpacing=0;" parent="1" vertex="1">
                    <mxGeometry x="710" y="-3994" width="170" height="54" as="geometry"/>
                </mxCell>
                <mxCell id="181" value="&lt;font style=&quot;font-size: 17px;&quot; color=&quot;#000000&quot;&gt;Globals.css&lt;/font&gt;" style="editableCssRules=.*;html=1;shape=image;verticalLabelPosition=middle;verticalAlign=middle;labelPosition=right;align=left;spacingLeft=20;part=1;points=[];imageAspect=0;image=data:image/svg+xml,PHN2ZyB4bWxucz0iaHR0cDovL3d3dy53My5vcmcvMjAwMC9zdmciIHhtbG5zOnY9Imh0dHBzOi8vdmVjdGEuaW8vbmFubyIgd2lkdGg9IjQxNiIgaGVpZ2h0PSIzNjIuMjAwMDEyMjA3MDMxMjUiIHZpZXdCb3g9IjAgMCA0MTYgMzYyLjIwMDAxMjIwNzAzMTI1Ij4mI3hhOwk8c3R5bGUgdHlwZT0idGV4dC9jc3MiPiYjeGE7CS5zdDB7ZmlsbDojNDI4NWY0O30mI3hhOwkuc3Qxe2ZpbGw6IzY2OWRmNjt9JiN4YTsJLnN0MntmaWxsOiNhZWNiZmE7fSYjeGE7CTwvc3R5bGU+JiN4YTsJPHBhdGggY2xhc3M9InN0MiIgZD0iTTk2LjAzIDBMMCAxNjcuMTdoMTkwLjY3TDI4Ny45NCAweiIvPiYjeGE7CTxwYXRoIGNsYXNzPSJzdDAiIGQ9Ik0yODcuNTkgMzYyLjJsLTk1LjY4LTE2Ny4xN0gwTDk1LjY4IDM2Mi4yeiIvPiYjeGE7CTxwYXRoIGNsYXNzPSJzdDEiIGQ9Ik00MTYgMTgxLjFMMzIwIDEzLjMxIDIyMy44OCAxODEuMSAzMjAgMzQ4Ljl6Ii8+JiN4YTs8L3N2Zz4=;fillColor=#d5e8d4;strokeColor=#82B366;strokeWidth=2;perimeterSpacing=0;shadow=1;" parent="180" vertex="1">
                    <mxGeometry width="30" height="26" relative="1" as="geometry">
                        <mxPoint x="15" y="17" as="offset"/>
                    </mxGeometry>
                </mxCell>
                <mxCell id="203" style="edgeStyle=orthogonalEdgeStyle;html=1;fillColor=#d5e8d4;strokeColor=#82b366;strokeWidth=2;" parent="1" source="185" target="160" edge="1">
                    <mxGeometry relative="1" as="geometry">
                        <mxPoint x="377.5" y="-4224" as="targetPoint"/>
                        <Array as="points">
                            <mxPoint x="990" y="-4050"/>
                            <mxPoint x="425" y="-4050"/>
                        </Array>
                    </mxGeometry>
                </mxCell>
                <mxCell id="185" value="" style="strokeColor=#82B366;shadow=1;strokeWidth=2;rounded=1;absoluteArcSize=1;arcSize=15;fillColor=#d5e8d4;perimeterSpacing=0;" parent="1" vertex="1">
                    <mxGeometry x="940" y="-3854" width="127" height="54" as="geometry"/>
                </mxCell>
                <mxCell id="186" value="&lt;font color=&quot;#000000&quot;&gt;Not-&lt;/font&gt;&lt;div&gt;Found,jsx&lt;/div&gt;" style="editableCssRules=.*;html=1;shape=image;verticalLabelPosition=middle;verticalAlign=middle;labelPosition=right;align=left;spacingLeft=20;part=1;points=[];imageAspect=0;image=data:image/svg+xml,PHN2ZyB4bWxucz0iaHR0cDovL3d3dy53My5vcmcvMjAwMC9zdmciIHhtbG5zOnY9Imh0dHBzOi8vdmVjdGEuaW8vbmFubyIgd2lkdGg9IjIwIiBoZWlnaHQ9IjIwIiB2aWV3Qm94PSIwIDAgMjAgMjAiPiYjeGE7CTxzdHlsZSB0eXBlPSJ0ZXh0L2NzcyI+JiN4YTsJLnN0MHtmaWxsOiM0Mjg1ZjQ7fSYjeGE7CS5zdDF7ZmlsbDojNjY5ZGY2O30mI3hhOwk8L3N0eWxlPiYjeGE7CTxwYXRoIGNsYXNzPSJzdDAiIGQ9Ik0yMCA4SDEwdjRoMTB6bTAgOEgxMHY0aDEweiIgZmlsbD0iIzQyODVmNCIvPiYjeGE7CTxwYXRoIGNsYXNzPSJzdDEiIGQ9Ik0xMCAxNkg2djRoNHpNMCAwaDZ2NEgwem0wIDhoMTB2NEgweiIgZmlsbD0iIzY2OWRmNiIvPiYjeGE7PC9zdmc+;fillColor=#d5e8d4;strokeColor=#82B366;strokeWidth=2;perimeterSpacing=0;shadow=1;" parent="185" vertex="1">
                    <mxGeometry width="30" height="30" relative="1" as="geometry">
                        <mxPoint x="15" y="15" as="offset"/>
                    </mxGeometry>
                </mxCell>
                <mxCell id="202" style="edgeStyle=orthogonalEdgeStyle;html=1;fillColor=#d5e8d4;strokeColor=#82b366;strokeWidth=2;" parent="1" source="187" target="160" edge="1">
                    <mxGeometry relative="1" as="geometry">
                        <mxPoint x="377.5" y="-4224" as="targetPoint"/>
                        <Array as="points">
                            <mxPoint x="900" y="-4050"/>
                            <mxPoint x="425" y="-4050"/>
                        </Array>
                    </mxGeometry>
                </mxCell>
                <mxCell id="187" value="" style="strokeColor=#82B366;shadow=1;strokeWidth=2;rounded=1;absoluteArcSize=1;arcSize=18;fillColor=#d5e8d4;perimeterSpacing=0;" parent="1" vertex="1">
                    <mxGeometry x="847" y="-3739" width="150" height="54" as="geometry"/>
                </mxCell>
                <mxCell id="188" value="&lt;font style=&quot;font-size: 17px;&quot; color=&quot;#000000&quot;&gt;Layout.js&lt;/font&gt;" style="editableCssRules=.*;html=1;shape=image;verticalLabelPosition=middle;verticalAlign=middle;labelPosition=right;align=left;spacingLeft=20;part=1;points=[];imageAspect=0;image=data:image/svg+xml,PHN2ZyB4bWxucz0iaHR0cDovL3d3dy53My5vcmcvMjAwMC9zdmciIHhtbG5zOnY9Imh0dHBzOi8vdmVjdGEuaW8vbmFubyIgd2lkdGg9IjIwIiBoZWlnaHQ9IjIwIiB2aWV3Qm94PSIwIDAgMjAgMjAiPiYjeGE7CTxzdHlsZSB0eXBlPSJ0ZXh0L2NzcyI+JiN4YTsJLnN0MHtmaWxsOiM0Mjg1ZjQ7fSYjeGE7CS5zdDF7ZmlsbDojNjY5ZGY2O30mI3hhOwkuc3Qye2ZpbGw6I2FlY2JmYTt9JiN4YTsJPC9zdHlsZT4mI3hhOwk8cGF0aCBjbGFzcz0ic3QxIiBkPSJNMTMuMTMgNS42M1YzLjIxTDEwIDB2Mi40MXptMy43NSA3LjVMMjAgMTBoLTIuNWwtMy4xMiAzLjEzem0tMTMuNzUgMEwwIDEwaDIuNWwzLjEzIDMuMTN6bTEwIDEuMjV2Mi40MUwxMCAyMHYtMi40MXoiIGZpbGwtcnVsZT0iZXZlbm9kZCIvPiYjeGE7CTxwYXRoIGNsYXNzPSJzdDIiIGQ9Ik02Ljg4IDUuNjNMMTAgMi40MVYwTDYuODggMy4yMXpNMTcuNSAxMEgyMGwtMy4xMi0zLjEyaC0yLjV6bS0xNSAwSDBsMy4xMy0zLjEyaDIuNXptNC4zOCA0LjM4TDEwIDE3LjU5VjIwbC0zLjEyLTMuMjF6bTAtNy41aDYuMjV2Ni4yNUg2Ljg4eiIgZmlsbC1ydWxlPSJldmVub2RkIi8+JiN4YTsJPHBhdGggY2xhc3M9InN0MSIgZD0iTTYuODggMTMuMTNsNi4yNS02LjI1djYuMjV6IiBmaWxsLXJ1bGU9ImV2ZW5vZGQiLz4mI3hhOwk8cGF0aCBjbGFzcz0ic3QwIiBkPSJNMTAgMTBsMy4xMy0zLjEydjYuMjV6IiBmaWxsLXJ1bGU9ImV2ZW5vZGQiLz4mI3hhOzwvc3ZnPg==;fillColor=#d5e8d4;strokeColor=#82B366;strokeWidth=2;perimeterSpacing=0;shadow=1;" parent="187" vertex="1">
                    <mxGeometry width="30" height="30" relative="1" as="geometry">
                        <mxPoint x="15" y="15" as="offset"/>
                    </mxGeometry>
                </mxCell>
                <mxCell id="206" style="edgeStyle=orthogonalEdgeStyle;html=1;exitX=0.5;exitY=0;exitDx=0;exitDy=0;fillColor=#d5e8d4;strokeColor=#82b366;strokeWidth=2;" parent="1" source="190" target="160" edge="1">
                    <mxGeometry relative="1" as="geometry">
                        <Array as="points">
                            <mxPoint x="1080" y="-4050"/>
                            <mxPoint x="425" y="-4050"/>
                        </Array>
                    </mxGeometry>
                </mxCell>
                <mxCell id="190" value="" style="strokeColor=#82B366;shadow=1;strokeWidth=2;rounded=1;absoluteArcSize=1;arcSize=15;fillColor=#d5e8d4;perimeterSpacing=0;" parent="1" vertex="1">
                    <mxGeometry x="1010" y="-3944" width="140" height="60" as="geometry"/>
                </mxCell>
                <mxCell id="191" value="&lt;font style=&quot;font-size: 17px;&quot;&gt;Page&lt;/font&gt;&lt;div&gt;LD Page&lt;/div&gt;" style="editableCssRules=.*;html=1;shape=image;verticalLabelPosition=middle;verticalAlign=middle;labelPosition=right;align=left;spacingLeft=20;part=1;points=[];imageAspect=0;image=data:image/svg+xml,PHN2ZyB4bWxucz0iaHR0cDovL3d3dy53My5vcmcvMjAwMC9zdmciIHhtbG5zOnY9Imh0dHBzOi8vdmVjdGEuaW8vbmFubyIgd2lkdGg9IjIwIiBoZWlnaHQ9IjIwIiB2aWV3Qm94PSIwIDAgMjAgMjAiPiYjeGE7CTxzdHlsZSB0eXBlPSJ0ZXh0L2NzcyI+JiN4YTsJLnN0MHtmaWxsOiM0Mjg1ZjQ7fSYjeGE7CS5zdDF7ZmlsbDojNjY5ZGY2O30mI3hhOwk8L3N0eWxlPiYjeGE7CTxwYXRoIGNsYXNzPSJzdDEiIGQ9Ik0wIDE1bDUgNWg1bC0yLjUtMi44Nkg2LjI1bC0zLjM5LTMuMzl2LTcuNWwzLjM5LTMuMzlINy41TDEwIDBINUwwIDV6TTEzLjc1IDIuODZsMy4zOSAzLjM5djcuNWwtMy4zOSAzLjM5SDEwTDEyLjUgMjBIMTVsNS01VjVsLTUtNWgtMi41TDEwIDIuODZ6IiBmaWxsLXJ1bGU9ImV2ZW5vZGQiLz4mI3hhOwk8cGF0aCBjbGFzcz0ic3QwIiBkPSJNMTAgMTBMNy41IDcuNSAxMCA1SDcuNUw1IDcuNXY1TDcuNSAxNUgxMGwtMi41LTIuNXptMi41IDBMMTAgMTIuNWwyLjUgMi41IDIuNS0yLjV2LTVMMTIuNSA1IDEwIDcuNXoiIGZpbGwtcnVsZT0iZXZlbm9kZCIvPiYjeGE7PC9zdmc+;fillColor=#d5e8d4;strokeColor=#82B366;strokeWidth=2;perimeterSpacing=0;shadow=1;" parent="190" vertex="1">
                    <mxGeometry width="30" height="30" relative="1" as="geometry">
                        <mxPoint x="15" y="15" as="offset"/>
                    </mxGeometry>
                </mxCell>
                <mxCell id="197" style="edgeStyle=orthogonalEdgeStyle;html=1;exitX=0.5;exitY=0;exitDx=0;exitDy=0;fillColor=#d5e8d4;strokeColor=#82b366;strokeWidth=2;" parent="1" source="158" target="160" edge="1">
                    <mxGeometry relative="1" as="geometry"/>
                </mxCell>
                <mxCell id="215" style="edgeStyle=orthogonalEdgeStyle;html=1;exitX=0.5;exitY=0;exitDx=0;exitDy=0;strokeWidth=2;" parent="1" source="210" target="158" edge="1">
                    <mxGeometry relative="1" as="geometry"/>
                </mxCell>
                <mxCell id="210" value="" style="strokeColor=#000000;shadow=1;strokeWidth=1;rounded=1;absoluteArcSize=1;arcSize=19;verticalAlign=top;" parent="1" vertex="1">
                    <mxGeometry x="15" y="-3884" width="140" height="60" as="geometry"/>
                </mxCell>
                <mxCell id="211" value="&lt;div style=&quot;&quot;&gt;&lt;span style=&quot;font-size: 18px; background-color: transparent;&quot;&gt;Sign-In&lt;/span&gt;&lt;/div&gt;" style="editableCssRules=.*;html=1;fontColor=#999999;shape=image;verticalLabelPosition=middle;verticalAlign=middle;labelPosition=right;align=left;spacingLeft=20;part=1;points=[];imageAspect=0;image=data:image/svg+xml,PHN2ZyB4bWxucz0iaHR0cDovL3d3dy53My5vcmcvMjAwMC9zdmciIHhtbG5zOnY9Imh0dHBzOi8vdmVjdGEuaW8vbmFubyIgd2lkdGg9IjIwLjAwMTcxNjYxMzc2OTUzIiBoZWlnaHQ9IjE0Ljc5ODEzMTk0Mjc0OTAyMyIgdmlld0JveD0iLTIuOTgwMjMyMjM4NzY5NTMxMmUtOCAtMC4wMDAxMzEyMzc1Mzg4ODA2Njg1OCAyMC4wMDE3MTY2MTM3Njk1MyAxNC43OTgxMzE5NDI3NDkwMjMiPiYjeGE7CTxzdHlsZSB0eXBlPSJ0ZXh0L2NzcyI+JiN4YTsJLnN0MHtmaWxsOiM0Mjg1ZjQ7fSYjeGE7CS5zdDF7ZmlsbDojNjY5ZGY2O30mI3hhOwkuc3Qye2ZpbGw6I2FlY2JmYTt9JiN4YTsJPC9zdHlsZT4mI3hhOwk8cGF0aCBjbGFzcz0ic3QwIiBkPSJNMTIuODYuODM4YTUuNDggNS40OCAwIDAgMC03LjA2IDEuMDYgNS4zMSA1LjMxIDAgMCAwLTEuMzQgMy42IDUuNDkgNS40OSAwIDAgMCAyLjQxIDQuNTNsLS4xNy4yOC0uNTYuMTYtMi4wNiAzLjQ4IDEuNDguODUgMi4wNS0zLjQ4LS4xNi0uNjEuMTQtLjI2YTUuNDkgNS40OSAwIDAgMCA1LjI3LTkuNjF6bS0xLjkyIDguM2EzLjc5IDMuNzkgMCAxIDEgMi42Ni00LjY1aDBhMy44IDMuOCAwIDAgMS0yLjY2IDQuNjV6Ii8+JiN4YTsJPHBhdGggY2xhc3M9InN0MSIgZD0iTS4wNSA0LjE3OGwuMTMtMS4wN2gxLjE4di4zNUguNTJ2LjQ1YS42OC42OCAwIDAgMSAuNzkuMTEuNzguNzggMCAwIDEgLjE3LjUzLjc3Ljc3IDAgMCAxLS4wOS4zNi41My41MyAwIDAgMS0uMjQuMjUuNjUuNjUgMCAwIDEtLjM4LjA5LjczLjczIDAgMCAxLS4zNi0uMDguNjYuNjYgMCAwIDEtLjI2LS4yMS42My42MyAwIDAgMS0uMTUtLjMyaC40MmEuMjcuMjcgMCAwIDAgLjA5LjIuMjUuMjUgMCAwIDAgLjIuMDcuMjMuMjMgMCAwIDAgLjIyLS4xLjQzLjQzIDAgMCAwIC4wNy0uMjkuMzcuMzcgMCAwIDAtLjA5LS4yNy4zMy4zMyAwIDAgMC0uMjUtLjEuNDEuNDEgMCAwIDAtLjI0LjA4aDB6Ii8+JiN4YTsJPHBhdGggY2xhc3M9InN0MiIgZD0iTTMuNDUgNS4yMThIM3YtMS42MWwtLjUxLjE1di0uMzZsLjg4LS4zMWgwek0xIDguMDU4SC41OXYtMS42MWwtLjUuMTV2LS4zNGwuOTEtLjMxaDB6Ii8+JiN4YTsJPHBhdGggY2xhc3M9InN0MSIgZD0iTTMuODYgNy4xODhhMS4xMyAxLjEzIDAgMCAxLS4xOC42Ny43NC43NCAwIDAgMS0xIDBoMGExIDEgMCAwIDEtLjE5LS42NXYtLjM5YTEuMDYgMS4wNiAwIDAgMSAuMTgtLjY3LjczLjczIDAgMCAxIDEgMGgwYTEuMDggMS4wOCAwIDAgMSAuMTkuNjV6bS0uNDItLjQzYS44My44MyAwIDAgMC0uMDctLjM2LjI1LjI1IDAgMCAwLS4yMy0uMTIuMjQuMjQgMCAwIDAtLjIyLjExLjc1Ljc1IDAgMCAwLS4wNy4zNnYuNTFhLjg1Ljg1IDAgMCAwIC4wNy4zOS4yMy4yMyAwIDAgMCAuMjMuMTIuMjMuMjMgMCAwIDAgLjIyLS4xMi43Ny43NyAwIDAgMCAuMDctLjM3eiIvPiYjeGE7CTxwYXRoIGNsYXNzPSJzdDIiIGQ9Ik0xNy4xMyA1LjEzOGgtLjQxdi0xLjYybC0uNTEuMTZ2LS4zNGwuODgtLjMyaDB6Ii8+JiN4YTsJPHBhdGggY2xhc3M9InN0MSIgZD0iTTE4LjYyIDQuMDk4bC4xMy0xLjA3aDEuMTh2LjM3aC0uODRsLS4wOS40M2EuNjUuNjUgMCAwIDEgLjMxLS4wOC42My42MyAwIDAgMSAuNDguMTkuNzQuNzQgMCAwIDEgLjE3LjUyLjgxLjgxIDAgMCAxLS4wOS4zNy42LjYgMCAwIDEtLjI1LjI1Ljc5Ljc5IDAgMCAxLS4zOC4wOS44NS44NSAwIDAgMS0uMzUtLjA4LjYyLjYyIDAgMCAxLS4yNi0uMjIuNTguNTggMCAwIDEtLjEtLjMySDE5YS4zNS4zNSAwIDAgMCAuMS4yMS4yOS4yOSAwIDAgMCAuMi4wNy4yNi4yNiAwIDAgMCAuMjItLjEuNDQuNDQgMCAwIDAgLjA2LS4zMy40MS40MSAwIDAgMC0uMDktLjI4LjM0LjM0IDAgMCAwLS4yNS0uMDkuMzQuMzQgMCAwIDAtLjI0LjA3aDB6bS0xLjA4IDMuMDlhMS4xMyAxLjEzIDAgMCAxLS4xOC42Ny43NC43NCAwIDAgMS0xIDBoMGExIDEgMCAwIDEtLjE5LS42NXYtLjM5YTEuMDYgMS4wNiAwIDAgMSAuMTgtLjY3LjczLjczIDAgMCAxIDEgMGgwYTEuMDggMS4wOCAwIDAgMSAuMTkuNjV6bS0uNDItLjQzYS44My44MyAwIDAgMC0uMDctLjM4LjI1LjI1IDAgMCAwLS4yMy0uMTIuMjQuMjQgMCAwIDAtLjIyLjExLjc1Ljc1IDAgMCAwLS4wNy4zNnYuNTFhLjg1Ljg1IDAgMCAwIC4wNy4zOS4yMy4yMyAwIDAgMCAuMjMuMTIuMjMuMjMgMCAwIDAgLjIyLS4xMi45LjkgMCAwIDAgLjA3LS4zN3oiLz4mI3hhOwk8cGF0aCBjbGFzcz0ic3QyIiBkPSJNMTguNjIgNy4wMThsLjEzLTEuMDdoMS4xOHYuMzVoLS44NGwtLjA1LjQ1YS42NS42NSAwIDAgMSAuMzEtLjA4LjYzLjYzIDAgMCAxIC40OC4xOS43OC43OCAwIDAgMSAuMTcuNTQuNzcuNzcgMCAwIDEtLjA5LjM2LjUxLjUxIDAgMCAxLS4yNS4yNS42OS42OSAwIDAgMS0uMzguMDkuNzIuNzIgMCAwIDEtLjM1LS4wOC41OS41OSAwIDAgMS0uMjYtLjIxLjYzLjYzIDAgMCAxLS4xLS4zMkgxOWEuMzIuMzIgMCAwIDAgLjEuMi4yNS4yNSAwIDAgMCAuMi4wNy4yMy4yMyAwIDAgMCAuMjItLjEuNDMuNDMgMCAwIDAgLjA4LS4yOS4zNy4zNyAwIDAgMC0uMDktLjI3LjMxLjMxIDAgMCAwLS4yNS0uMS4zNS4zNSAwIDAgMC0uMjQuMDhoMHoiLz4mI3hhOwk8cGF0aCBjbGFzcz0ic3QxIiBkPSJNNy43MyA3LjUwOHYtLjk0YS44Ni44NiAwIDAgMSAuMzUtLjYyIDIuNDMgMi40MyAwIDAgMSAuODMtLjQzIDIuODcgMi44NyAwIDAgMSAyLjQyLjI4IDEuMDUgMS4wNSAwIDAgMSAuMjcuMi45LjkgMCAwIDEgLjMuNzV2Ljc2em0yLjA4LTIuNjFhMS4wOCAxLjA4IDAgMSAxIDEuMDgtMS4wN2gwYTEuMDkgMS4wOSAwIDAgMS0xLjA4IDEuMDd6Ii8+JiN4YTs8L3N2Zz4=;strokeColor=#000000;" parent="210" vertex="1">
                    <mxGeometry width="30" height="22" relative="1" as="geometry">
                        <mxPoint x="15" y="19" as="offset"/>
                    </mxGeometry>
                </mxCell>
                <mxCell id="214" style="edgeStyle=orthogonalEdgeStyle;html=1;strokeWidth=2;" parent="1" source="212" target="158" edge="1">
                    <mxGeometry relative="1" as="geometry">
                        <Array as="points">
                            <mxPoint x="260" y="-3914"/>
                            <mxPoint x="85" y="-3914"/>
                        </Array>
                    </mxGeometry>
                </mxCell>
                <mxCell id="212" value="" style="strokeColor=#dddddd;shadow=1;strokeWidth=1;rounded=1;absoluteArcSize=1;arcSize=16;verticalAlign=top;" parent="1" vertex="1">
                    <mxGeometry x="180" y="-3854" width="150" height="60" as="geometry"/>
                </mxCell>
                <mxCell id="213" value="&lt;div style=&quot;&quot;&gt;&lt;span style=&quot;font-size: 18px; background-color: transparent;&quot;&gt;Sign-Up&lt;/span&gt;&lt;/div&gt;" style="editableCssRules=.*;html=1;fontColor=#999999;shape=image;verticalLabelPosition=middle;verticalAlign=middle;labelPosition=right;align=left;spacingLeft=20;part=1;points=[];imageAspect=0;image=data:image/svg+xml,PHN2ZyB4bWxucz0iaHR0cDovL3d3dy53My5vcmcvMjAwMC9zdmciIHhtbG5zOnY9Imh0dHBzOi8vdmVjdGEuaW8vbmFubyIgd2lkdGg9IjIwLjAwMTcxNjYxMzc2OTUzIiBoZWlnaHQ9IjE0Ljc5ODEzMTk0Mjc0OTAyMyIgdmlld0JveD0iLTIuOTgwMjMyMjM4NzY5NTMxMmUtOCAtMC4wMDAxMzEyMzc1Mzg4ODA2Njg1OCAyMC4wMDE3MTY2MTM3Njk1MyAxNC43OTgxMzE5NDI3NDkwMjMiPiYjeGE7CTxzdHlsZSB0eXBlPSJ0ZXh0L2NzcyI+JiN4YTsJLnN0MHtmaWxsOiM0Mjg1ZjQ7fSYjeGE7CS5zdDF7ZmlsbDojNjY5ZGY2O30mI3hhOwkuc3Qye2ZpbGw6I2FlY2JmYTt9JiN4YTsJPC9zdHlsZT4mI3hhOwk8cGF0aCBjbGFzcz0ic3QwIiBkPSJNMTIuODYuODM4YTUuNDggNS40OCAwIDAgMC03LjA2IDEuMDYgNS4zMSA1LjMxIDAgMCAwLTEuMzQgMy42IDUuNDkgNS40OSAwIDAgMCAyLjQxIDQuNTNsLS4xNy4yOC0uNTYuMTYtMi4wNiAzLjQ4IDEuNDguODUgMi4wNS0zLjQ4LS4xNi0uNjEuMTQtLjI2YTUuNDkgNS40OSAwIDAgMCA1LjI3LTkuNjF6bS0xLjkyIDguM2EzLjc5IDMuNzkgMCAxIDEgMi42Ni00LjY1aDBhMy44IDMuOCAwIDAgMS0yLjY2IDQuNjV6Ii8+JiN4YTsJPHBhdGggY2xhc3M9InN0MSIgZD0iTS4wNSA0LjE3OGwuMTMtMS4wN2gxLjE4di4zNUguNTJ2LjQ1YS42OC42OCAwIDAgMSAuNzkuMTEuNzguNzggMCAwIDEgLjE3LjUzLjc3Ljc3IDAgMCAxLS4wOS4zNi41My41MyAwIDAgMS0uMjQuMjUuNjUuNjUgMCAwIDEtLjM4LjA5LjczLjczIDAgMCAxLS4zNi0uMDguNjYuNjYgMCAwIDEtLjI2LS4yMS42My42MyAwIDAgMS0uMTUtLjMyaC40MmEuMjcuMjcgMCAwIDAgLjA5LjIuMjUuMjUgMCAwIDAgLjIuMDcuMjMuMjMgMCAwIDAgLjIyLS4xLjQzLjQzIDAgMCAwIC4wNy0uMjkuMzcuMzcgMCAwIDAtLjA5LS4yNy4zMy4zMyAwIDAgMC0uMjUtLjEuNDEuNDEgMCAwIDAtLjI0LjA4aDB6Ii8+JiN4YTsJPHBhdGggY2xhc3M9InN0MiIgZD0iTTMuNDUgNS4yMThIM3YtMS42MWwtLjUxLjE1di0uMzZsLjg4LS4zMWgwek0xIDguMDU4SC41OXYtMS42MWwtLjUuMTV2LS4zNGwuOTEtLjMxaDB6Ii8+JiN4YTsJPHBhdGggY2xhc3M9InN0MSIgZD0iTTMuODYgNy4xODhhMS4xMyAxLjEzIDAgMCAxLS4xOC42Ny43NC43NCAwIDAgMS0xIDBoMGExIDEgMCAwIDEtLjE5LS42NXYtLjM5YTEuMDYgMS4wNiAwIDAgMSAuMTgtLjY3LjczLjczIDAgMCAxIDEgMGgwYTEuMDggMS4wOCAwIDAgMSAuMTkuNjV6bS0uNDItLjQzYS44My44MyAwIDAgMC0uMDctLjM2LjI1LjI1IDAgMCAwLS4yMy0uMTIuMjQuMjQgMCAwIDAtLjIyLjExLjc1Ljc1IDAgMCAwLS4wNy4zNnYuNTFhLjg1Ljg1IDAgMCAwIC4wNy4zOS4yMy4yMyAwIDAgMCAuMjMuMTIuMjMuMjMgMCAwIDAgLjIyLS4xMi43Ny43NyAwIDAgMCAuMDctLjM3eiIvPiYjeGE7CTxwYXRoIGNsYXNzPSJzdDIiIGQ9Ik0xNy4xMyA1LjEzOGgtLjQxdi0xLjYybC0uNTEuMTZ2LS4zNGwuODgtLjMyaDB6Ii8+JiN4YTsJPHBhdGggY2xhc3M9InN0MSIgZD0iTTE4LjYyIDQuMDk4bC4xMy0xLjA3aDEuMTh2LjM3aC0uODRsLS4wOS40M2EuNjUuNjUgMCAwIDEgLjMxLS4wOC42My42MyAwIDAgMSAuNDguMTkuNzQuNzQgMCAwIDEgLjE3LjUyLjgxLjgxIDAgMCAxLS4wOS4zNy42LjYgMCAwIDEtLjI1LjI1Ljc5Ljc5IDAgMCAxLS4zOC4wOS44NS44NSAwIDAgMS0uMzUtLjA4LjYyLjYyIDAgMCAxLS4yNi0uMjIuNTguNTggMCAwIDEtLjEtLjMySDE5YS4zNS4zNSAwIDAgMCAuMS4yMS4yOS4yOSAwIDAgMCAuMi4wNy4yNi4yNiAwIDAgMCAuMjItLjEuNDQuNDQgMCAwIDAgLjA2LS4zMy40MS40MSAwIDAgMC0uMDktLjI4LjM0LjM0IDAgMCAwLS4yNS0uMDkuMzQuMzQgMCAwIDAtLjI0LjA3aDB6bS0xLjA4IDMuMDlhMS4xMyAxLjEzIDAgMCAxLS4xOC42Ny43NC43NCAwIDAgMS0xIDBoMGExIDEgMCAwIDEtLjE5LS42NXYtLjM5YTEuMDYgMS4wNiAwIDAgMSAuMTgtLjY3LjczLjczIDAgMCAxIDEgMGgwYTEuMDggMS4wOCAwIDAgMSAuMTkuNjV6bS0uNDItLjQzYS44My44MyAwIDAgMC0uMDctLjM4LjI1LjI1IDAgMCAwLS4yMy0uMTIuMjQuMjQgMCAwIDAtLjIyLjExLjc1Ljc1IDAgMCAwLS4wNy4zNnYuNTFhLjg1Ljg1IDAgMCAwIC4wNy4zOS4yMy4yMyAwIDAgMCAuMjMuMTIuMjMuMjMgMCAwIDAgLjIyLS4xMi45LjkgMCAwIDAgLjA3LS4zN3oiLz4mI3hhOwk8cGF0aCBjbGFzcz0ic3QyIiBkPSJNMTguNjIgNy4wMThsLjEzLTEuMDdoMS4xOHYuMzVoLS44NGwtLjA1LjQ1YS42NS42NSAwIDAgMSAuMzEtLjA4LjYzLjYzIDAgMCAxIC40OC4xOS43OC43OCAwIDAgMSAuMTcuNTQuNzcuNzcgMCAwIDEtLjA5LjM2LjUxLjUxIDAgMCAxLS4yNS4yNS42OS42OSAwIDAgMS0uMzguMDkuNzIuNzIgMCAwIDEtLjM1LS4wOC41OS41OSAwIDAgMS0uMjYtLjIxLjYzLjYzIDAgMCAxLS4xLS4zMkgxOWEuMzIuMzIgMCAwIDAgLjEuMi4yNS4yNSAwIDAgMCAuMi4wNy4yMy4yMyAwIDAgMCAuMjItLjEuNDMuNDMgMCAwIDAgLjA4LS4yOS4zNy4zNyAwIDAgMC0uMDktLjI3LjMxLjMxIDAgMCAwLS4yNS0uMS4zNS4zNSAwIDAgMC0uMjQuMDhoMHoiLz4mI3hhOwk8cGF0aCBjbGFzcz0ic3QxIiBkPSJNNy43MyA3LjUwOHYtLjk0YS44Ni44NiAwIDAgMSAuMzUtLjYyIDIuNDMgMi40MyAwIDAgMSAuODMtLjQzIDIuODcgMi44NyAwIDAgMSAyLjQyLjI4IDEuMDUgMS4wNSAwIDAgMSAuMjcuMi45LjkgMCAwIDEgLjMuNzV2Ljc2em0yLjA4LTIuNjFhMS4wOCAxLjA4IDAgMSAxIDEuMDgtMS4wN2gwYTEuMDkgMS4wOSAwIDAgMS0xLjA4IDEuMDd6Ii8+JiN4YTs8L3N2Zz4=;strokeColor=#000000;" parent="212" vertex="1">
                    <mxGeometry width="30" height="22" relative="1" as="geometry">
                        <mxPoint x="15" y="19" as="offset"/>
                    </mxGeometry>
                </mxCell>
                <mxCell id="219" style="edgeStyle=orthogonalEdgeStyle;html=1;strokeWidth=2;" parent="1" source="216" target="158" edge="1">
                    <mxGeometry relative="1" as="geometry">
                        <Array as="points">
                            <mxPoint x="170" y="-3914"/>
                            <mxPoint x="85" y="-3914"/>
                        </Array>
                    </mxGeometry>
                </mxCell>
                <mxCell id="216" value="" style="strokeColor=#000000;shadow=1;strokeWidth=1;rounded=1;absoluteArcSize=1;arcSize=21;verticalAlign=top;" parent="1" vertex="1">
                    <mxGeometry x="70" y="-3774" width="160" height="60" as="geometry"/>
                </mxCell>
                <mxCell id="217" value="&lt;div style=&quot;&quot;&gt;&lt;span style=&quot;font-size: 18px; background-color: transparent;&quot;&gt;Layout.js&lt;/span&gt;&lt;/div&gt;" style="editableCssRules=.*;html=1;fontColor=#999999;shape=image;verticalLabelPosition=middle;verticalAlign=middle;labelPosition=right;align=left;spacingLeft=20;part=1;points=[];imageAspect=0;image=data:image/svg+xml,PHN2ZyB4bWxucz0iaHR0cDovL3d3dy53My5vcmcvMjAwMC9zdmciIHhtbG5zOnY9Imh0dHBzOi8vdmVjdGEuaW8vbmFubyIgd2lkdGg9IjIwLjAwMTcxNjYxMzc2OTUzIiBoZWlnaHQ9IjE0Ljc5ODEzMTk0Mjc0OTAyMyIgdmlld0JveD0iLTIuOTgwMjMyMjM4NzY5NTMxMmUtOCAtMC4wMDAxMzEyMzc1Mzg4ODA2Njg1OCAyMC4wMDE3MTY2MTM3Njk1MyAxNC43OTgxMzE5NDI3NDkwMjMiPiYjeGE7CTxzdHlsZSB0eXBlPSJ0ZXh0L2NzcyI+JiN4YTsJLnN0MHtmaWxsOiM0Mjg1ZjQ7fSYjeGE7CS5zdDF7ZmlsbDojNjY5ZGY2O30mI3hhOwkuc3Qye2ZpbGw6I2FlY2JmYTt9JiN4YTsJPC9zdHlsZT4mI3hhOwk8cGF0aCBjbGFzcz0ic3QwIiBkPSJNMTIuODYuODM4YTUuNDggNS40OCAwIDAgMC03LjA2IDEuMDYgNS4zMSA1LjMxIDAgMCAwLTEuMzQgMy42IDUuNDkgNS40OSAwIDAgMCAyLjQxIDQuNTNsLS4xNy4yOC0uNTYuMTYtMi4wNiAzLjQ4IDEuNDguODUgMi4wNS0zLjQ4LS4xNi0uNjEuMTQtLjI2YTUuNDkgNS40OSAwIDAgMCA1LjI3LTkuNjF6bS0xLjkyIDguM2EzLjc5IDMuNzkgMCAxIDEgMi42Ni00LjY1aDBhMy44IDMuOCAwIDAgMS0yLjY2IDQuNjV6Ii8+JiN4YTsJPHBhdGggY2xhc3M9InN0MSIgZD0iTS4wNSA0LjE3OGwuMTMtMS4wN2gxLjE4di4zNUguNTJ2LjQ1YS42OC42OCAwIDAgMSAuNzkuMTEuNzguNzggMCAwIDEgLjE3LjUzLjc3Ljc3IDAgMCAxLS4wOS4zNi41My41MyAwIDAgMS0uMjQuMjUuNjUuNjUgMCAwIDEtLjM4LjA5LjczLjczIDAgMCAxLS4zNi0uMDguNjYuNjYgMCAwIDEtLjI2LS4yMS42My42MyAwIDAgMS0uMTUtLjMyaC40MmEuMjcuMjcgMCAwIDAgLjA5LjIuMjUuMjUgMCAwIDAgLjIuMDcuMjMuMjMgMCAwIDAgLjIyLS4xLjQzLjQzIDAgMCAwIC4wNy0uMjkuMzcuMzcgMCAwIDAtLjA5LS4yNy4zMy4zMyAwIDAgMC0uMjUtLjEuNDEuNDEgMCAwIDAtLjI0LjA4aDB6Ii8+JiN4YTsJPHBhdGggY2xhc3M9InN0MiIgZD0iTTMuNDUgNS4yMThIM3YtMS42MWwtLjUxLjE1di0uMzZsLjg4LS4zMWgwek0xIDguMDU4SC41OXYtMS42MWwtLjUuMTV2LS4zNGwuOTEtLjMxaDB6Ii8+JiN4YTsJPHBhdGggY2xhc3M9InN0MSIgZD0iTTMuODYgNy4xODhhMS4xMyAxLjEzIDAgMCAxLS4xOC42Ny43NC43NCAwIDAgMS0xIDBoMGExIDEgMCAwIDEtLjE5LS42NXYtLjM5YTEuMDYgMS4wNiAwIDAgMSAuMTgtLjY3LjczLjczIDAgMCAxIDEgMGgwYTEuMDggMS4wOCAwIDAgMSAuMTkuNjV6bS0uNDItLjQzYS44My44MyAwIDAgMC0uMDctLjM2LjI1LjI1IDAgMCAwLS4yMy0uMTIuMjQuMjQgMCAwIDAtLjIyLjExLjc1Ljc1IDAgMCAwLS4wNy4zNnYuNTFhLjg1Ljg1IDAgMCAwIC4wNy4zOS4yMy4yMyAwIDAgMCAuMjMuMTIuMjMuMjMgMCAwIDAgLjIyLS4xMi43Ny43NyAwIDAgMCAuMDctLjM3eiIvPiYjeGE7CTxwYXRoIGNsYXNzPSJzdDIiIGQ9Ik0xNy4xMyA1LjEzOGgtLjQxdi0xLjYybC0uNTEuMTZ2LS4zNGwuODgtLjMyaDB6Ii8+JiN4YTsJPHBhdGggY2xhc3M9InN0MSIgZD0iTTE4LjYyIDQuMDk4bC4xMy0xLjA3aDEuMTh2LjM3aC0uODRsLS4wOS40M2EuNjUuNjUgMCAwIDEgLjMxLS4wOC42My42MyAwIDAgMSAuNDguMTkuNzQuNzQgMCAwIDEgLjE3LjUyLjgxLjgxIDAgMCAxLS4wOS4zNy42LjYgMCAwIDEtLjI1LjI1Ljc5Ljc5IDAgMCAxLS4zOC4wOS44NS44NSAwIDAgMS0uMzUtLjA4LjYyLjYyIDAgMCAxLS4yNi0uMjIuNTguNTggMCAwIDEtLjEtLjMySDE5YS4zNS4zNSAwIDAgMCAuMS4yMS4yOS4yOSAwIDAgMCAuMi4wNy4yNi4yNiAwIDAgMCAuMjItLjEuNDQuNDQgMCAwIDAgLjA2LS4zMy40MS40MSAwIDAgMC0uMDktLjI4LjM0LjM0IDAgMCAwLS4yNS0uMDkuMzQuMzQgMCAwIDAtLjI0LjA3aDB6bS0xLjA4IDMuMDlhMS4xMyAxLjEzIDAgMCAxLS4xOC42Ny43NC43NCAwIDAgMS0xIDBoMGExIDEgMCAwIDEtLjE5LS42NXYtLjM5YTEuMDYgMS4wNiAwIDAgMSAuMTgtLjY3LjczLjczIDAgMCAxIDEgMGgwYTEuMDggMS4wOCAwIDAgMSAuMTkuNjV6bS0uNDItLjQzYS44My44MyAwIDAgMC0uMDctLjM4LjI1LjI1IDAgMCAwLS4yMy0uMTIuMjQuMjQgMCAwIDAtLjIyLjExLjc1Ljc1IDAgMCAwLS4wNy4zNnYuNTFhLjg1Ljg1IDAgMCAwIC4wNy4zOS4yMy4yMyAwIDAgMCAuMjMuMTIuMjMuMjMgMCAwIDAgLjIyLS4xMi45LjkgMCAwIDAgLjA3LS4zN3oiLz4mI3hhOwk8cGF0aCBjbGFzcz0ic3QyIiBkPSJNMTguNjIgNy4wMThsLjEzLTEuMDdoMS4xOHYuMzVoLS44NGwtLjA1LjQ1YS42NS42NSAwIDAgMSAuMzEtLjA4LjYzLjYzIDAgMCAxIC40OC4xOS43OC43OCAwIDAgMSAuMTcuNTQuNzcuNzcgMCAwIDEtLjA5LjM2LjUxLjUxIDAgMCAxLS4yNS4yNS42OS42OSAwIDAgMS0uMzguMDkuNzIuNzIgMCAwIDEtLjM1LS4wOC41OS41OSAwIDAgMS0uMjYtLjIxLjYzLjYzIDAgMCAxLS4xLS4zMkgxOWEuMzIuMzIgMCAwIDAgLjEuMi4yNS4yNSAwIDAgMCAuMi4wNy4yMy4yMyAwIDAgMCAuMjItLjEuNDMuNDMgMCAwIDAgLjA4LS4yOS4zNy4zNyAwIDAgMC0uMDktLjI3LjMxLjMxIDAgMCAwLS4yNS0uMS4zNS4zNSAwIDAgMC0uMjQuMDhoMHoiLz4mI3hhOwk8cGF0aCBjbGFzcz0ic3QxIiBkPSJNNy43MyA3LjUwOHYtLjk0YS44Ni44NiAwIDAgMSAuMzUtLjYyIDIuNDMgMi40MyAwIDAgMSAuODMtLjQzIDIuODcgMi44NyAwIDAgMSAyLjQyLjI4IDEuMDUgMS4wNSAwIDAgMSAuMjcuMi45LjkgMCAwIDEgLjMuNzV2Ljc2em0yLjA4LTIuNjFhMS4wOCAxLjA4IDAgMSAxIDEuMDgtMS4wN2gwYTEuMDkgMS4wOSAwIDAgMS0xLjA4IDEuMDd6Ii8+JiN4YTs8L3N2Zz4=;strokeColor=#000000;" parent="216" vertex="1">
                    <mxGeometry width="30" height="22" relative="1" as="geometry">
                        <mxPoint x="15" y="19" as="offset"/>
                    </mxGeometry>
                </mxCell>
                <mxCell id="246" style="edgeStyle=orthogonalEdgeStyle;html=1;strokeWidth=2;" parent="1" source="223" target="172" edge="1">
                    <mxGeometry relative="1" as="geometry">
                        <Array as="points">
                            <mxPoint x="95" y="-3650"/>
                            <mxPoint x="375" y="-3650"/>
                        </Array>
                    </mxGeometry>
                </mxCell>
                <mxCell id="223" value="" style="strokeColor=#000000;shadow=1;strokeWidth=1;rounded=1;absoluteArcSize=1;arcSize=20;" parent="1" vertex="1">
                    <mxGeometry x="30" y="-3614" width="130" height="60" as="geometry"/>
                </mxCell>
                <mxCell id="224" value="&lt;font style=&quot;font-size: 16px;&quot;&gt;Account&lt;/font&gt;" style="editableCssRules=.*;html=1;fontColor=#999999;shape=image;verticalLabelPosition=middle;verticalAlign=middle;labelPosition=right;align=left;spacingLeft=20;part=1;points=[];imageAspect=0;image=data:image/svg+xml,PHN2ZyB4bWxucz0iaHR0cDovL3d3dy53My5vcmcvMjAwMC9zdmciIHhtbG5zOnY9Imh0dHBzOi8vdmVjdGEuaW8vbmFubyIgd2lkdGg9IjE2LjQyMDAwMDA3NjI5Mzk0NSIgaGVpZ2h0PSIyMC4wNDk5OTkyMzcwNjA1NDciIGZpbGwtcnVsZT0iZXZlbm9kZCIgdmlld0JveD0iMCAwIDE2LjQyMDAwMDA3NjI5Mzk0NSAyMC4wNDk5OTkyMzcwNjA1NDciPiYjeGE7CTxzdHlsZSB0eXBlPSJ0ZXh0L2NzcyI+JiN4YTsJLnN0MHtmaWxsOiM0Mjg1ZjQ7fSYjeGE7CS5zdDF7ZmlsbDojNjY5ZGY2O30mI3hhOwk8L3N0eWxlPiYjeGE7CTxwYXRoIGNsYXNzPSJzdDEiIGQ9Ik04LjIxIDBMMCAzLjQydjUuNjNjMCA1LjA2IDMuNSA5LjggOC4yMSAxMSA0LjcxLTEuMTUgOC4yMS01Ljg5IDguMjEtMTAuOTVWMy40MnptMCAzLjc5YTIuNjMgMi42MyAwIDAgMSAxLjAwNSA1LjA2QTIuNjMgMi42MyAwIDAgMSA2LjM1IDQuNTZhMi42MyAyLjYzIDAgMCAxIDEuODYtLjc3em00LjExIDExLjE1YTguNjQgOC42NCAwIDAgMS00LjExIDIuOTMgOC42NCA4LjY0IDAgMCAxLTQuMTEtMi45M3YtMi4yNWMwLTEuNjcgMi43NC0yLjUyIDQuMTEtMi41MnM0LjExLjg1IDQuMTEgMi41MnoiLz4mI3hhOwk8cGF0aCBjbGFzcz0ic3QwIiBkPSJNOC4yMSAwdjMuNzlhMi42MyAyLjYzIDAgMSAxIDAgNS4yNnYxLjEyYzEuMzcgMCA0LjExLjg1IDQuMTEgMi41MnYyLjI1YTguNjQgOC42NCAwIDAgMS00LjExIDIuOTNWMjBjNC43MS0xLjE1IDguMjEtNS44OSA4LjIxLTEwLjk1VjMuNDJ6Ii8+JiN4YTs8L3N2Zz4=;strokeColor=#000000;" parent="223" vertex="1">
                    <mxGeometry width="24" height="30" relative="1" as="geometry">
                        <mxPoint x="18" y="15" as="offset"/>
                    </mxGeometry>
                </mxCell>
                <mxCell id="243" style="edgeStyle=orthogonalEdgeStyle;html=1;strokeWidth=2;" parent="1" source="236" target="172" edge="1">
                    <mxGeometry relative="1" as="geometry">
                        <Array as="points">
                            <mxPoint x="290" y="-3650"/>
                            <mxPoint x="375" y="-3650"/>
                        </Array>
                    </mxGeometry>
                </mxCell>
                <mxCell id="236" value="" style="strokeColor=#000000;shadow=1;strokeWidth=1;rounded=1;absoluteArcSize=1;arcSize=21;" parent="1" vertex="1">
                    <mxGeometry x="210" y="-3614" width="160" height="60" as="geometry"/>
                </mxCell>
                <mxCell id="237" value="&lt;font style=&quot;font-size: 17px;&quot;&gt;Dashborad&lt;/font&gt;" style="editableCssRules=.*;html=1;fontColor=#999999;shape=image;verticalLabelPosition=middle;verticalAlign=middle;labelPosition=right;align=left;spacingLeft=20;part=1;points=[];imageAspect=0;image=data:image/svg+xml,PHN2ZyB4bWxucz0iaHR0cDovL3d3dy53My5vcmcvMjAwMC9zdmciIHhtbG5zOnY9Imh0dHBzOi8vdmVjdGEuaW8vbmFubyIgd2lkdGg9IjIwIiBoZWlnaHQ9IjE3LjUiIGZpbGwtcnVsZT0iZXZlbm9kZCIgdmlld0JveD0iMCAwIDIwIDE3LjUiPiYjeGE7CTxzdHlsZSB0eXBlPSJ0ZXh0L2NzcyI+JiN4YTsJLnN0MHtmaWxsOiM0Mjg1ZjQ7fSYjeGE7CS5zdDF7ZmlsbDojNjY5ZGY2O30mI3hhOwk8L3N0eWxlPiYjeGE7CTxwYXRoIGNsYXNzPSJzdDAiIGQ9Ik0xOC45MSAxMC42M0wyMCA4Ljc1IDE3LjgyIDVoLTMuMDdsLTEuMDYtMS44NkgxMi41VjEuODhoMS45NGwxLjA2IDEuODdoMS41OUwxNC45IDBoLTQuMjd2NWgxLjczbC43MyAxLjI1aC0yLjQ2djIuNWgyLjI2bDEuMDUtMS44N2gyLjgxbC43MiAxLjI1aC0yLjhMMTMuNjIgMTBoLTIuOTl2NC4zOGgzLjRsLS43MiAxLjI1aC0yLjY4djEuODdoNC4yN2wzLjI4LTUuNjJoLTIuMDlsLS43MyAxLjI1SDEyLjV2LTEuMjVoMi4xNGwuNzQtMS4yNXoiLz4mI3hhOwk8cGF0aCBjbGFzcz0ic3QxIiBkPSJNMS4wOSAxMC42M0wwIDguNzUgMi4xOCA1aDMuMDdsMS4wNi0xLjg2SDcuNVYxLjg4SDUuNTZMNC41IDMuNzVIMi45MUw1LjEgMGg0LjI4djVINy42NGwtLjczIDEuMjVoMi40N3YyLjVINy4xMUw2LjA2IDYuODhIMy4yNWwtLjcyIDEuMjVoMi44TDYuMzggMTBoM3Y0LjM4SDUuOTdsLjcyIDEuMjVoMi42OXYxLjg3SDUuMWwtMy4yOC01LjYyaDIuMDlsLjczIDEuMjVINy41di0xLjI1SDUuMzZsLS43NC0xLjI1eiIvPiYjeGE7PC9zdmc+;strokeColor=#000000;" parent="236" vertex="1">
                    <mxGeometry width="30" height="27" relative="1" as="geometry">
                        <mxPoint x="15" y="16" as="offset"/>
                    </mxGeometry>
                </mxCell>
                <mxCell id="244" style="edgeStyle=orthogonalEdgeStyle;html=1;strokeWidth=2;" parent="1" source="238" target="172" edge="1">
                    <mxGeometry relative="1" as="geometry">
                        <Array as="points">
                            <mxPoint x="511" y="-3650"/>
                            <mxPoint x="375" y="-3650"/>
                        </Array>
                    </mxGeometry>
                </mxCell>
                <mxCell id="238" value="" style="strokeColor=#000000;shadow=1;strokeWidth=1;rounded=1;absoluteArcSize=1;arcSize=18;" parent="1" vertex="1">
                    <mxGeometry x="426" y="-3614" width="170" height="60" as="geometry"/>
                </mxCell>
                <mxCell id="239" value="&lt;font style=&quot;font-size: 17px;&quot; color=&quot;#000000&quot;&gt;Transaction&lt;/font&gt;" style="editableCssRules=.*;html=1;fontColor=#999999;shape=image;verticalLabelPosition=middle;verticalAlign=middle;labelPosition=right;align=left;spacingLeft=20;part=1;points=[];imageAspect=0;image=data:image/svg+xml,PHN2ZyB4bWxucz0iaHR0cDovL3d3dy53My5vcmcvMjAwMC9zdmciIHhtbG5zOnY9Imh0dHBzOi8vdmVjdGEuaW8vbmFubyIgd2lkdGg9IjQxNiIgaGVpZ2h0PSIzNjIuMjAwMDEyMjA3MDMxMjUiIHZpZXdCb3g9IjAgMCA0MTYgMzYyLjIwMDAxMjIwNzAzMTI1Ij4mI3hhOwk8c3R5bGUgdHlwZT0idGV4dC9jc3MiPiYjeGE7CS5zdDB7ZmlsbDojNDI4NWY0O30mI3hhOwkuc3Qxe2ZpbGw6IzY2OWRmNjt9JiN4YTsJLnN0MntmaWxsOiNhZWNiZmE7fSYjeGE7CTwvc3R5bGU+JiN4YTsJPHBhdGggY2xhc3M9InN0MiIgZD0iTTk2LjAzIDBMMCAxNjcuMTdoMTkwLjY3TDI4Ny45NCAweiIvPiYjeGE7CTxwYXRoIGNsYXNzPSJzdDAiIGQ9Ik0yODcuNTkgMzYyLjJsLTk1LjY4LTE2Ny4xN0gwTDk1LjY4IDM2Mi4yeiIvPiYjeGE7CTxwYXRoIGNsYXNzPSJzdDEiIGQ9Ik00MTYgMTgxLjFMMzIwIDEzLjMxIDIyMy44OCAxODEuMSAzMjAgMzQ4Ljl6Ii8+JiN4YTs8L3N2Zz4=;strokeColor=#000000;" parent="238" vertex="1">
                    <mxGeometry width="30" height="26" relative="1" as="geometry">
                        <mxPoint x="15" y="17" as="offset"/>
                    </mxGeometry>
                </mxCell>
                <mxCell id="245" style="edgeStyle=orthogonalEdgeStyle;html=1;strokeWidth=2;" parent="1" source="240" target="172" edge="1">
                    <mxGeometry relative="1" as="geometry">
                        <Array as="points">
                            <mxPoint x="710" y="-3650"/>
                            <mxPoint x="375" y="-3650"/>
                        </Array>
                    </mxGeometry>
                </mxCell>
                <mxCell id="240" value="" style="strokeColor=#000000;shadow=1;strokeWidth=1;rounded=1;absoluteArcSize=1;arcSize=23;" parent="1" vertex="1">
                    <mxGeometry x="640" y="-3614" width="160" height="60" as="geometry"/>
                </mxCell>
                <mxCell id="241" value="&lt;font style=&quot;font-size: 17px;&quot;&gt;Layout.js&lt;/font&gt;" style="editableCssRules=.*;html=1;fontColor=#999999;shape=image;verticalLabelPosition=middle;verticalAlign=middle;labelPosition=right;align=left;spacingLeft=20;part=1;points=[];imageAspect=0;image=data:image/svg+xml,PHN2ZyB4bWxucz0iaHR0cDovL3d3dy53My5vcmcvMjAwMC9zdmciIHhtbG5zOnY9Imh0dHBzOi8vdmVjdGEuaW8vbmFubyIgd2lkdGg9IjIwLjAxMDAwMDIyODg4MTgzNiIgaGVpZ2h0PSI5LjQ5NDcyOTA0MjA1MzIyMyIgdmlld0JveD0iMC4wMDAyMDYzODQ1NjA0NDI1Mjk2MiAwIDIwLjAxMDAwMDIyODg4MTgzNiA5LjQ5NDcyOTA0MjA1MzIyMyI+JiN4YTsJPHN0eWxlIHR5cGU9InRleHQvY3NzIj4mI3hhOwkuc3Qwe2ZpbGw6IzQyODVmNDt9JiN4YTsJLnN0MXtmaWxsOiM2NjlkZjY7fSYjeGE7CS5zdDJ7ZmlsbDojYWVjYmZhO30mI3hhOwk8L3N0eWxlPiYjeGE7CTxwYXRoIGNsYXNzPSJzdDAiIGQ9Ik0xLjQ3NiA4LjQzYTQuMzEgNC4zMSAwIDEgMSA2LjA3LS40IDMuNjggMy42OCAwIDAgMS0uMzkuNCA0LjMyIDQuMzIgMCAwIDEtNS42OCAwem01LjItNS4yYTMuMDcgMy4wNyAwIDEgMC0uNCA0LjMzIDMgMyAwIDAgMCAuNC0uNCAzLjA3IDMuMDcgMCAwIDAgMC0zLjkzem02LjE5IDUuMmE0LjMxIDQuMzEgMCAxIDEgNi4wNy0uNCAzLjc4IDMuNzggMCAwIDEtLjQuNCA0LjMxIDQuMzEgMCAwIDEtNS42NyAwem01LjItNS4yYTMuMDcgMy4wNyAwIDEgMC0uNCA0LjMzIDMgMyAwIDAgMCAuNC0uNCAzLjA4IDMuMDggMCAwIDAgMC0zLjkzeiIvPiYjeGE7CTxnIGNsYXNzPSJzdDEiPiYjeGE7CQk8Y2lyY2xlIGN4PSI0LjMxNiIgY3k9IjUuMTkiIHI9IjEuNjkiLz4mI3hhOwkJPGNpcmNsZSBjeD0iMTUuNjk2IiBjeT0iNS4xOSIgcj0iMS42OSIvPiYjeGE7CTwvZz4mI3hhOwk8cGF0aCBjbGFzcz0ic3QyIiBkPSJNMTIuMzk2LjU2YS4zMS4zMSAwIDAgMC0uMTgtLjU2aC00LjQyYS4zMS4zMSAwIDAgMC0uMTguNTYgNS43MyA1LjczIDAgMCAxIDIuMTMgMi45Mi4yOC4yOCAwIDAgMCAuMzYuMTYuMjkuMjkgMCAwIDAgLjE3LS4xNyA1LjY3IDUuNjcgMCAwIDEgMi4xMi0yLjkxeiIvPiYjeGE7PC9zdmc+;strokeColor=#000000;" parent="240" vertex="1">
                    <mxGeometry width="30" height="14" relative="1" as="geometry">
                        <mxPoint x="15" y="23" as="offset"/>
                    </mxGeometry>
                </mxCell>
                <mxCell id="256" style="edgeStyle=orthogonalEdgeStyle;html=1;entryX=0.5;entryY=1;entryDx=0;entryDy=0;strokeWidth=2;" parent="1" source="252" target="174" edge="1">
                    <mxGeometry relative="1" as="geometry">
                        <Array as="points">
                            <mxPoint x="475" y="-3850"/>
                            <mxPoint x="503" y="-3850"/>
                        </Array>
                    </mxGeometry>
                </mxCell>
                <mxCell id="252" value="" style="strokeColor=light-dark(#000000, #2f2f2f);shadow=1;strokeWidth=1;rounded=1;absoluteArcSize=1;arcSize=22;" parent="1" vertex="1">
                    <mxGeometry x="410" y="-3816" width="130" height="54" as="geometry"/>
                </mxCell>
                <mxCell id="253" value="&lt;font style=&quot;font-size: 17px;&quot;&gt;Inngest&lt;/font&gt;" style="editableCssRules=.*;html=1;fontColor=#999999;shape=image;verticalLabelPosition=middle;verticalAlign=middle;labelPosition=right;align=left;spacingLeft=20;part=1;points=[];imageAspect=0;image=data:image/svg+xml,PHN2ZyB4bWxucz0iaHR0cDovL3d3dy53My5vcmcvMjAwMC9zdmciIHhtbG5zOnY9Imh0dHBzOi8vdmVjdGEuaW8vbmFubyIgd2lkdGg9IjE5Ljk1MDAwMDc2MjkzOTQ1MyIgaGVpZ2h0PSIxMiIgdmlld0JveD0iMCAwIDE5Ljk1MDAwMDc2MjkzOTQ1MyAxMiI+JiN4YTsJPHN0eWxlIHR5cGU9InRleHQvY3NzIj4mI3hhOwkuc3Qwe2ZpbGw6IzQyODVmNH0mI3hhOwkuc3Qxe2ZpbGw6I2FlY2JmYX0mI3hhOwk8L3N0eWxlPiYjeGE7CTxwYXRoIGNsYXNzPSJzdDAiIGQ9Ik02IDZsMSAyaDZsMS0yLTEtMkg3eiIgZmlsbD0iIzQyODVmNCIvPiYjeGE7CTxwYXRoIGNsYXNzPSJzdDEiIGQ9Ik03LjUxIDRIN0w2IDZoOGwtMS0yeiIgZmlsbD0iI2FlY2JmYSIvPiYjeGE7CTxwYXRoIGNsYXNzPSJzdDAiIGQ9Ik0xNi45NyA2bDEuNS0yLjI1TDE2IDBoLTN6IiBmaWxsPSIjNDI4NWY0Ii8+JiN4YTsJPHBhdGggY2xhc3M9InN0MSIgZD0iTTE2Ljk3IDZoMEwxMyAxMmgzbDMuOTUtNi0xLjQ4LTIuMjV6IiBmaWxsPSIjYWVjYmZhIi8+JiN4YTsJPHBhdGggY2xhc3M9InN0MCIgZD0iTTIuOTggNmwtMS41IDIuMjVMMy45NSAxMmgzeiIgZmlsbD0iIzQyODVmNCIvPiYjeGE7CTxwYXRoIGNsYXNzPSJzdDEiIGQ9Ik0yLjk4IDZoMGwzLjk3LTZoLTNMMCA2bDEuNDggMi4yNXoiIGZpbGw9IiNhZWNiZmEiLz4mI3hhOzwvc3ZnPg==;strokeColor=light-dark(#000000, #2f2f2f);" parent="252" vertex="1">
                    <mxGeometry width="30" height="18" relative="1" as="geometry">
                        <mxPoint x="15" y="21" as="offset"/>
                    </mxGeometry>
                </mxCell>
                <mxCell id="257" style="edgeStyle=orthogonalEdgeStyle;html=1;strokeWidth=2;" parent="1" source="254" target="174" edge="1">
                    <mxGeometry relative="1" as="geometry">
                        <mxPoint x="590" y="-3884" as="targetPoint"/>
                        <Array as="points">
                            <mxPoint x="557" y="-3850"/>
                            <mxPoint x="503" y="-3850"/>
                        </Array>
                    </mxGeometry>
                </mxCell>
                <mxCell id="254" value="" style="strokeColor=light-dark(#000000, #2f2f2f);shadow=1;strokeWidth=1;rounded=1;absoluteArcSize=1;arcSize=18;" parent="1" vertex="1">
                    <mxGeometry x="490" y="-3740" width="134" height="50" as="geometry"/>
                </mxCell>
                <mxCell id="255" value="&lt;font style=&quot;font-size: 15px;&quot; color=&quot;#000000&quot;&gt;Seed&lt;/font&gt;" style="editableCssRules=.*;html=1;fontColor=#999999;shape=image;verticalLabelPosition=middle;verticalAlign=middle;labelPosition=right;align=left;spacingLeft=20;part=1;points=[];imageAspect=0;image=data:image/svg+xml,PHN2ZyB4bWxucz0iaHR0cDovL3d3dy53My5vcmcvMjAwMC9zdmciIHhtbG5zOnY9Imh0dHBzOi8vdmVjdGEuaW8vbmFubyIgd2lkdGg9IjIwLjE4MDIzMTA5NDM2MDM1IiBoZWlnaHQ9IjIwLjE4MDIwODIwNjE3Njc1OCIgdmlld0JveD0iLTAuMDAwMTE1MTY1MTIzMTMzOTIwMTMgLTAuMDAwMTAzMzQ0NDkzMjU0NTUzNTMgMjAuMTgwMjMxMDk0MzYwMzUgMjAuMTgwMjA4MjA2MTc2NzU4Ij4mI3hhOwk8c3R5bGUgdHlwZT0idGV4dC9jc3MiPiYjeGE7CS5zdDB7ZmlsbDojNjY5ZGY2O2ZpbGwtcnVsZTpldmVub2RkfSYjeGE7CS5zdDF7ZmlsbC1ydWxlOmV2ZW5vZGQ7ZmlsbDojNDI4NWY0fSYjeGE7CTwvc3R5bGU+JiN4YTsJPHBhdGggY2xhc3M9InN0MCIgZD0iTTMuMjkgMTAuMDlsMS4zMi0xLjMyLTEuNzktMS43OWEyLjk0IDIuOTQgMCAwIDEgMi4wOC01IDIuOTIgMi45MiAwIDAgMSAyLjA3Ljg2bDEuOCAxLjc5IDEuMzItMS4zNEw4LjMgMS41YTQuODEgNC44MSAwIDEgMC02LjggNi44em0xMy42IDBsLTEuMzIgMS4zMiAxLjc5IDEuOGEyLjk0IDIuOTQgMCAwIDEtNC4xNiA0LjE1bC0xLjc5LTEuNzktMS4zMiAxLjMyIDEuNzkgMS43OWE0LjgxIDQuODEgMCAxIDAgNi44LTYuOHoiLz4mI3hhOwk8cGF0aCBjbGFzcz0ic3QxIiBkPSJNNi45OCAxNy4zNmEyLjk0IDIuOTQgMCAxIDEtNC4xNi00LjE2bDEuNzktMS43OSA0LjE2IDQuMTZ6bTYuMjMtMTQuNTRhMi45MyAyLjkzIDAgMCAxIDUgMi4wOCAzIDMgMCAwIDEtLjg2IDIuMDhsLTEuNzkgMS43OS00LjE1LTQuMTZ6bS0zLjEyIDEwLjQ2YTMuMiAzLjIgMCAwIDEtMy4xOS0zLjE5aDBhMy4yMSAzLjIxIDAgMCAxIDMuMTktMy4xOWgwYTMuMjEgMy4yMSAwIDAgMSAzLjE5IDMuMTloMGEzLjIgMy4yIDAgMCAxLTMuMTkgMy4xOXptNi44LTMuMTlsMS43OS0xLjc5QTQuODEgNC44MSAwIDAgMCAxNi41NzQuMTUzIDQuODEgNC44MSAwIDAgMCAxMS44OCAxLjVsLTEuNzkgMS43OS02LjggNi44LTEuNzkgMS43OWE0LjgxIDQuODEgMCAwIDAgMi4xMDYgOC4xNDdBNC44MSA0LjgxIDAgMCAwIDguMyAxOC42OGwxLjc5LTEuNzl6Ii8+JiN4YTs8L3N2Zz4=;strokeColor=light-dark(#000000, #2f2f2f);" parent="254" vertex="1">
                    <mxGeometry width="30" height="30" relative="1" as="geometry">
                        <mxPoint x="15" y="15" as="offset"/>
                    </mxGeometry>
                </mxCell>
                <mxCell id="260" style="edgeStyle=orthogonalEdgeStyle;html=1;strokeWidth=2;strokeColor=light-dark(#000000, #2f2f2f);" parent="1" source="258" target="178" edge="1">
                    <mxGeometry relative="1" as="geometry"/>
                </mxCell>
                <mxCell id="258" value="" style="strokeColor=light-dark(#000000, #2f2f2f);shadow=1;strokeWidth=1;rounded=1;absoluteArcSize=1;arcSize=16;" parent="1" vertex="1">
                    <mxGeometry x="650" y="-3734" width="170" height="54" as="geometry"/>
                </mxCell>
                <mxCell id="259" value="&lt;font style=&quot;font-size: 17px;&quot; color=&quot;#000000&quot;&gt;Schema.js&lt;/font&gt;" style="editableCssRules=.*;html=1;fontColor=#999999;shape=image;verticalLabelPosition=middle;verticalAlign=middle;labelPosition=right;align=left;spacingLeft=20;part=1;points=[];imageAspect=0;image=data:image/svg+xml,PHN2ZyB4bWxucz0iaHR0cDovL3d3dy53My5vcmcvMjAwMC9zdmciIHhtbG5zOnY9Imh0dHBzOi8vdmVjdGEuaW8vbmFubyIgd2lkdGg9IjIwIiBoZWlnaHQ9IjE0LjE0MzAxOTY3NjIwODQ5NiIgdmlld0JveD0iMCAwLjAwMDQ4OTk2NjI0NTM2ODEyMzEgMjAgMTQuMTQzMDE5Njc2MjA4NDk2Ij4mI3hhOwk8c3R5bGUgdHlwZT0idGV4dC9jc3MiPiYjeGE7CS5zdDB7ZmlsbDojNDI4NWY0O30mI3hhOwkuc3Qxe2ZpbGw6IzY2OWRmNjt9JiN4YTsJPC9zdHlsZT4mI3hhOwk8cGF0aCBjbGFzcz0ic3QwIiBkPSJNMTAgMS40NzJhNS41OSA1LjU5IDAgMCAxIDQgMS42bDEtMWE3LjA3IDcuMDcgMCAwIDAtMTAgMGgwbDEgMWE1LjU5IDUuNTkgMCAwIDEgNC0xLjZ6bTAgMTEuMmE1LjU5IDUuNTkgMCAwIDEtNC0xLjZsLTEgMWE3LjA3IDcuMDcgMCAwIDAgMTAgMGgwbC0xLTFhNS41OSA1LjU5IDAgMCAxLTQgMS42eiIvPiYjeGE7CTxwYXRoIGNsYXNzPSJzdDEiIGQ9Ik0xMCAxMC4xNDJhMy4wNiAzLjA2IDAgMCAxLTMtMi4zNEgzLjExdjIuMzhMMCA3LjA3MmwzLjExLTMuMXYyLjM4SDdhMy4wNiAzLjA2IDAgMCAxIDMtMi4zNGgwYTMuMDYgMy4wNiAwIDAgMSAzIDIuMzRoMy45MXYtMi4zOUwyMCA3LjA3MmwtMy4xMSAzLjEydi0yLjM5SDEzYTMuMDYgMy4wNiAwIDAgMS0zIDIuMzR6bTAtNC42OGExLjYxIDEuNjEgMCAxIDAgMS42MSAxLjYxaDBBMS42MSAxLjYxIDAgMCAwIDEwIDUuNDYyeiIvPiYjeGE7PC9zdmc+;strokeColor=light-dark(#000000, #2f2f2f);" parent="258" vertex="1">
                    <mxGeometry width="30" height="21" relative="1" as="geometry">
                        <mxPoint x="15" y="19.5" as="offset"/>
                    </mxGeometry>
                </mxCell>
                <mxCell id="272" style="edgeStyle=orthogonalEdgeStyle;html=1;exitX=1;exitY=0.5;exitDx=0;exitDy=0;fillColor=#f8cecc;strokeColor=#b85450;strokeWidth=2;" parent="1" source="261" target="14" edge="1">
                    <mxGeometry relative="1" as="geometry"/>
                </mxCell>
                <mxCell id="261" value="" style="shadow=1;strokeWidth=1;rounded=1;absoluteArcSize=1;arcSize=18;fillColor=#fad9d5;strokeColor=#ae4132;" parent="1" vertex="1">
                    <mxGeometry x="456" y="-4406" width="104" height="56" as="geometry"/>
                </mxCell>
                <mxCell id="262" value="&lt;font style=&quot;font-size: 17px;&quot; color=&quot;#000000&quot;&gt;UI&lt;/font&gt;" style="editableCssRules=.*;html=1;shape=image;verticalLabelPosition=middle;verticalAlign=middle;labelPosition=right;align=left;spacingLeft=20;part=1;points=[];imageAspect=0;image=data:image/svg+xml,PHN2ZyB4bWxucz0iaHR0cDovL3d3dy53My5vcmcvMjAwMC9zdmciIHhtbG5zOnY9Imh0dHBzOi8vdmVjdGEuaW8vbmFubyIgd2lkdGg9IjIwIiBoZWlnaHQ9IjIwIiB2aWV3Qm94PSIwIDAgMjAgMjAiPiYjeGE7CTxzdHlsZSB0eXBlPSJ0ZXh0L2NzcyI+JiN4YTsJLnN0MHtmaWxsOiM0Mjg1ZjQ7fSYjeGE7CS5zdDF7ZmlsbDojNjY5ZGY2O30mI3hhOwkuc3Qye2ZpbGw6I2FlY2JmYTt9JiN4YTsJPC9zdHlsZT4mI3hhOwk8cGF0aCBjbGFzcz0ic3QyIiBkPSJNMTQgMGg2djZoLTZ6Ii8+JiN4YTsJPHBhdGggY2xhc3M9InN0MSIgZD0iTTE3IDBoM3Y2aC0zeiIvPiYjeGE7CTxwYXRoIGNsYXNzPSJzdDIiIGQ9Ik0xNCAxNGg2djZoLTZ6Ii8+JiN4YTsJPHBhdGggY2xhc3M9InN0MSIgZD0iTTE3IDE0aDN2NmgtM3oiLz4mI3hhOwk8cGF0aCBjbGFzcz0ic3QyIiBkPSJNMCAwaDZ2NkgweiIvPiYjeGE7CTxwYXRoIGNsYXNzPSJzdDEiIGQ9Ik0zIDBoM3Y2SDN6Ii8+JiN4YTsJPHBhdGggY2xhc3M9InN0MiIgZD0iTTAgMTRoNnY2SDB6Ii8+JiN4YTsJPGcgY2xhc3M9InN0MSI+JiN4YTsJCTxwYXRoIGQ9Ik0zIDE0aDN2Nkgzek02IDJoOHYySDZ6Ii8+JiN4YTsJCTxwYXRoIGQ9Ik02IDE2aDh2Mkg2ek0xNiA2aDJ2OGgtMnpNMiA2aDJ2OEgyeiIvPiYjeGE7CTwvZz4mI3hhOwk8cGF0aCBjbGFzcz0ic3QwIiBkPSJNMiA2aDJ2Mkgyem0xNCAwaDJ2MmgtMnpNNiAyaDJ2Mkg2em0wIDE0aDJ2Mkg2eiIvPiYjeGE7PC9zdmc+;fillColor=#f8cecc;strokeColor=#b85450;" parent="261" vertex="1">
                    <mxGeometry width="30" height="30" relative="1" as="geometry">
                        <mxPoint x="15" y="15" as="offset"/>
                    </mxGeometry>
                </mxCell>
                <mxCell id="271" style="edgeStyle=orthogonalEdgeStyle;html=1;fillColor=#f8cecc;strokeColor=#b85450;strokeWidth=2;" parent="1" source="265" target="14" edge="1">
                    <mxGeometry relative="1" as="geometry">
                        <Array as="points">
                            <mxPoint x="595" y="-4330"/>
                        </Array>
                    </mxGeometry>
                </mxCell>
                <mxCell id="265" value="" style="shadow=1;strokeWidth=1;rounded=1;absoluteArcSize=1;arcSize=24;" parent="1" vertex="1">
                    <mxGeometry x="610" y="-4356.3" width="185" height="60.3" as="geometry"/>
                </mxCell>
                <mxCell id="266" value="&lt;font style=&quot;font-size: 17px;&quot; color=&quot;#000000&quot;&gt;Create-account&lt;/font&gt;&lt;div&gt;&lt;font style=&quot;color: rgb(140, 140, 140); font-size: 13px;&quot;&gt;Drop-box&lt;/font&gt;&lt;/div&gt;" style="editableCssRules=.*;html=1;shape=image;verticalLabelPosition=middle;verticalAlign=middle;labelPosition=right;align=left;spacingLeft=20;part=1;points=[];imageAspect=0;image=data:image/svg+xml,PHN2ZyB4bWxucz0iaHR0cDovL3d3dy53My5vcmcvMjAwMC9zdmciIHhtbG5zOnY9Imh0dHBzOi8vdmVjdGEuaW8vbmFubyIgd2lkdGg9IjIwIiBoZWlnaHQ9IjE0LjE0MzAxOTY3NjIwODQ5NiIgdmlld0JveD0iMCAwLjAwMDQ4OTk2NjI0NTM2ODEyMzEgMjAgMTQuMTQzMDE5Njc2MjA4NDk2Ij4mI3hhOwk8c3R5bGUgdHlwZT0idGV4dC9jc3MiPiYjeGE7CS5zdDB7ZmlsbDojNDI4NWY0O30mI3hhOwkuc3Qxe2ZpbGw6IzY2OWRmNjt9JiN4YTsJPC9zdHlsZT4mI3hhOwk8cGF0aCBjbGFzcz0ic3QwIiBkPSJNMTAgMS40NzJhNS41OSA1LjU5IDAgMCAxIDQgMS42bDEtMWE3LjA3IDcuMDcgMCAwIDAtMTAgMGgwbDEgMWE1LjU5IDUuNTkgMCAwIDEgNC0xLjZ6bTAgMTEuMmE1LjU5IDUuNTkgMCAwIDEtNC0xLjZsLTEgMWE3LjA3IDcuMDcgMCAwIDAgMTAgMGgwbC0xLTFhNS41OSA1LjU5IDAgMCAxLTQgMS42eiIvPiYjeGE7CTxwYXRoIGNsYXNzPSJzdDEiIGQ9Ik0xMCAxMC4xNDJhMy4wNiAzLjA2IDAgMCAxLTMtMi4zNEgzLjExdjIuMzhMMCA3LjA3MmwzLjExLTMuMXYyLjM4SDdhMy4wNiAzLjA2IDAgMCAxIDMtMi4zNGgwYTMuMDYgMy4wNiAwIDAgMSAzIDIuMzRoMy45MXYtMi4zOUwyMCA3LjA3MmwtMy4xMSAzLjEydi0yLjM5SDEzYTMuMDYgMy4wNiAwIDAgMS0zIDIuMzR6bTAtNC42OGExLjYxIDEuNjEgMCAxIDAgMS42MSAxLjYxaDBBMS42MSAxLjYxIDAgMCAwIDEwIDUuNDYyeiIvPiYjeGE7PC9zdmc+;fillColor=#f8cecc;strokeColor=#b85450;" parent="265" vertex="1">
                    <mxGeometry width="28.57" height="20" relative="1" as="geometry">
                        <mxPoint x="15" y="19.5" as="offset"/>
                    </mxGeometry>
                </mxCell>
                <mxCell id="273" style="edgeStyle=orthogonalEdgeStyle;html=1;fillColor=#f8cecc;strokeColor=#b85450;strokeWidth=2;" parent="1" source="267" target="14" edge="1">
                    <mxGeometry relative="1" as="geometry">
                        <Array as="points">
                            <mxPoint x="548" y="-4294.3"/>
                            <mxPoint x="595" y="-4294.3"/>
                        </Array>
                    </mxGeometry>
                </mxCell>
                <mxCell id="267" value="" style="shadow=1;strokeWidth=1;rounded=1;absoluteArcSize=1;arcSize=24;" parent="1" vertex="1">
                    <mxGeometry x="426" y="-4316" width="154" height="54" as="geometry"/>
                </mxCell>
                <mxCell id="268" value="&lt;font&gt;&lt;font style=&quot;font-size: 17px;&quot;&gt;&lt;font style=&quot;color: light-dark(rgb(0, 0, 0), rgb(237, 237, 237));&quot;&gt;Hero.js&lt;/font&gt;&lt;br&gt;&lt;/font&gt;&lt;font style=&quot;color: rgb(92, 92, 92); font-size: 13px;&quot;&gt;DS 1 Section&lt;/font&gt;&lt;/font&gt;" style="editableCssRules=.*;html=1;shape=image;verticalLabelPosition=middle;verticalAlign=middle;labelPosition=right;align=left;spacingLeft=20;part=1;points=[];imageAspect=0;image=data:image/svg+xml,PHN2ZyB4bWxucz0iaHR0cDovL3d3dy53My5vcmcvMjAwMC9zdmciIHhtbG5zOnY9Imh0dHBzOi8vdmVjdGEuaW8vbmFubyIgd2lkdGg9IjIwIiBoZWlnaHQ9IjE0LjE0MzAxOTY3NjIwODQ5NiIgdmlld0JveD0iMCAwLjAwMDQ4OTk2NjI0NTM2ODEyMzEgMjAgMTQuMTQzMDE5Njc2MjA4NDk2Ij4mI3hhOwk8c3R5bGUgdHlwZT0idGV4dC9jc3MiPiYjeGE7CS5zdDB7ZmlsbDojNDI4NWY0O30mI3hhOwkuc3Qxe2ZpbGw6IzY2OWRmNjt9JiN4YTsJPC9zdHlsZT4mI3hhOwk8cGF0aCBjbGFzcz0ic3QwIiBkPSJNMTAgMS40NzJhNS41OSA1LjU5IDAgMCAxIDQgMS42bDEtMWE3LjA3IDcuMDcgMCAwIDAtMTAgMGgwbDEgMWE1LjU5IDUuNTkgMCAwIDEgNC0xLjZ6bTAgMTEuMmE1LjU5IDUuNTkgMCAwIDEtNC0xLjZsLTEgMWE3LjA3IDcuMDcgMCAwIDAgMTAgMGgwbC0xLTFhNS41OSA1LjU5IDAgMCAxLTQgMS42eiIvPiYjeGE7CTxwYXRoIGNsYXNzPSJzdDEiIGQ9Ik0xMCAxMC4xNDJhMy4wNiAzLjA2IDAgMCAxLTMtMi4zNEgzLjExdjIuMzhMMCA3LjA3MmwzLjExLTMuMXYyLjM4SDdhMy4wNiAzLjA2IDAgMCAxIDMtMi4zNGgwYTMuMDYgMy4wNiAwIDAgMSAzIDIuMzRoMy45MXYtMi4zOUwyMCA3LjA3MmwtMy4xMSAzLjEydi0yLjM5SDEzYTMuMDYgMy4wNiAwIDAgMS0zIDIuMzR6bTAtNC42OGExLjYxIDEuNjEgMCAxIDAgMS42MSAxLjYxaDBBMS42MSAxLjYxIDAgMCAwIDEwIDUuNDYyeiIvPiYjeGE7PC9zdmc+;fillColor=#f8cecc;strokeColor=#b85450;" parent="267" vertex="1">
                    <mxGeometry width="30" height="21" relative="1" as="geometry">
                        <mxPoint x="15" y="19.5" as="offset"/>
                    </mxGeometry>
                </mxCell>
                <mxCell id="274" style="edgeStyle=orthogonalEdgeStyle;html=1;fillColor=#f8cecc;strokeColor=#b85450;strokeWidth=2;" parent="1" source="269" target="14" edge="1">
                    <mxGeometry relative="1" as="geometry">
                        <Array as="points">
                            <mxPoint x="595" y="-4250"/>
                            <mxPoint x="595" y="-4250"/>
                        </Array>
                    </mxGeometry>
                </mxCell>
                <mxCell id="269" value="" style="shadow=1;strokeWidth=1;rounded=1;absoluteArcSize=1;arcSize=22;" parent="1" vertex="1">
                    <mxGeometry x="520" y="-4232" width="170" height="52" as="geometry"/>
                </mxCell>
                <mxCell id="270" value="&lt;font style=&quot;font-size: 17px;&quot; color=&quot;#000000&quot;&gt;Header&lt;/font&gt;" style="editableCssRules=.*;html=1;shape=image;verticalLabelPosition=middle;verticalAlign=middle;labelPosition=right;align=left;spacingLeft=20;part=1;points=[];imageAspect=0;image=data:image/svg+xml,PHN2ZyB4bWxucz0iaHR0cDovL3d3dy53My5vcmcvMjAwMC9zdmciIHhtbG5zOnY9Imh0dHBzOi8vdmVjdGEuaW8vbmFubyIgd2lkdGg9IjIwIiBoZWlnaHQ9IjE0LjE0MzAxOTY3NjIwODQ5NiIgdmlld0JveD0iMCAwLjAwMDQ4OTk2NjI0NTM2ODEyMzEgMjAgMTQuMTQzMDE5Njc2MjA4NDk2Ij4mI3hhOwk8c3R5bGUgdHlwZT0idGV4dC9jc3MiPiYjeGE7CS5zdDB7ZmlsbDojNDI4NWY0O30mI3hhOwkuc3Qxe2ZpbGw6IzY2OWRmNjt9JiN4YTsJPC9zdHlsZT4mI3hhOwk8cGF0aCBjbGFzcz0ic3QwIiBkPSJNMTAgMS40NzJhNS41OSA1LjU5IDAgMCAxIDQgMS42bDEtMWE3LjA3IDcuMDcgMCAwIDAtMTAgMGgwbDEgMWE1LjU5IDUuNTkgMCAwIDEgNC0xLjZ6bTAgMTEuMmE1LjU5IDUuNTkgMCAwIDEtNC0xLjZsLTEgMWE3LjA3IDcuMDcgMCAwIDAgMTAgMGgwbC0xLTFhNS41OSA1LjU5IDAgMCAxLTQgMS42eiIvPiYjeGE7CTxwYXRoIGNsYXNzPSJzdDEiIGQ9Ik0xMCAxMC4xNDJhMy4wNiAzLjA2IDAgMCAxLTMtMi4zNEgzLjExdjIuMzhMMCA3LjA3MmwzLjExLTMuMXYyLjM4SDdhMy4wNiAzLjA2IDAgMCAxIDMtMi4zNGgwYTMuMDYgMy4wNiAwIDAgMSAzIDIuMzRoMy45MXYtMi4zOUwyMCA3LjA3MmwtMy4xMSAzLjEydi0yLjM5SDEzYTMuMDYgMy4wNiAwIDAgMS0zIDIuMzR6bTAtNC42OGExLjYxIDEuNjEgMCAxIDAgMS42MSAxLjYxaDBBMS42MSAxLjYxIDAgMCAwIDEwIDUuNDYyeiIvPiYjeGE7PC9zdmc+;fillColor=#f8cecc;strokeColor=#b85450;" parent="269" vertex="1">
                    <mxGeometry width="30" height="21" relative="1" as="geometry">
                        <mxPoint x="15" y="19.5" as="offset"/>
                    </mxGeometry>
                </mxCell>
                <mxCell id="281" style="edgeStyle=orthogonalEdgeStyle;html=1;strokeColor=light-dark(#2F8F8B,#EDEDED);strokeWidth=2;" parent="1" target="28" edge="1">
                    <mxGeometry relative="1" as="geometry">
                        <Array as="points">
                            <mxPoint x="820" y="-4290"/>
                            <mxPoint x="820" y="-4370"/>
                            <mxPoint x="855" y="-4370"/>
                        </Array>
                        <mxPoint x="830" y="-4290" as="sourcePoint"/>
                        <mxPoint x="830" y="-4450.299999999999" as="targetPoint"/>
                    </mxGeometry>
                </mxCell>
                <mxCell id="275" value="" style="shadow=1;strokeWidth=1;rounded=1;absoluteArcSize=1;arcSize=17;" parent="1" vertex="1">
                    <mxGeometry x="770" y="-4290" width="170" height="50" as="geometry"/>
                </mxCell>
                <mxCell id="276" value="&lt;font style=&quot;font-size: 17px;&quot; color=&quot;#000000&quot;&gt;Landing&lt;/font&gt;" style="editableCssRules=.*;html=1;shape=image;verticalLabelPosition=middle;verticalAlign=middle;labelPosition=right;align=left;spacingLeft=20;part=1;points=[];imageAspect=0;image=data:image/svg+xml,PHN2ZyB4bWxucz0iaHR0cDovL3d3dy53My5vcmcvMjAwMC9zdmciIHhtbG5zOnY9Imh0dHBzOi8vdmVjdGEuaW8vbmFubyIgd2lkdGg9IjIwIiBoZWlnaHQ9IjE0LjE0MzAxOTY3NjIwODQ5NiIgdmlld0JveD0iMCAwLjAwMDQ4OTk2NjI0NTM2ODEyMzEgMjAgMTQuMTQzMDE5Njc2MjA4NDk2Ij4mI3hhOwk8c3R5bGUgdHlwZT0idGV4dC9jc3MiPiYjeGE7CS5zdDB7ZmlsbDojNDI4NWY0O30mI3hhOwkuc3Qxe2ZpbGw6IzY2OWRmNjt9JiN4YTsJPC9zdHlsZT4mI3hhOwk8cGF0aCBjbGFzcz0ic3QwIiBkPSJNMTAgMS40NzJhNS41OSA1LjU5IDAgMCAxIDQgMS42bDEtMWE3LjA3IDcuMDcgMCAwIDAtMTAgMGgwbDEgMWE1LjU5IDUuNTkgMCAwIDEgNC0xLjZ6bTAgMTEuMmE1LjU5IDUuNTkgMCAwIDEtNC0xLjZsLTEgMWE3LjA3IDcuMDcgMCAwIDAgMTAgMGgwbC0xLTFhNS41OSA1LjU5IDAgMCAxLTQgMS42eiIvPiYjeGE7CTxwYXRoIGNsYXNzPSJzdDEiIGQ9Ik0xMCAxMC4xNDJhMy4wNiAzLjA2IDAgMCAxLTMtMi4zNEgzLjExdjIuMzhMMCA3LjA3MmwzLjExLTMuMXYyLjM4SDdhMy4wNiAzLjA2IDAgMCAxIDMtMi4zNGgwYTMuMDYgMy4wNiAwIDAgMSAzIDIuMzRoMy45MXYtMi4zOUwyMCA3LjA3MmwtMy4xMSAzLjEydi0yLjM5SDEzYTMuMDYgMy4wNiAwIDAgMS0zIDIuMzR6bTAtNC42OGExLjYxIDEuNjEgMCAxIDAgMS42MSAxLjYxaDBBMS42MSAxLjYxIDAgMCAwIDEwIDUuNDYyeiIvPiYjeGE7PC9zdmc+;fillColor=#f8cecc;strokeColor=#b85450;" parent="275" vertex="1">
                    <mxGeometry width="30" height="21" relative="1" as="geometry">
                        <mxPoint x="15" y="19.5" as="offset"/>
                    </mxGeometry>
                </mxCell>
                <mxCell id="280" style="html=1;exitX=0.5;exitY=0;exitDx=0;exitDy=0;edgeStyle=orthogonalEdgeStyle;strokeColor=light-dark(#2F8F8B,#EDEDED);strokeWidth=2;" parent="1" source="277" target="28" edge="1">
                    <mxGeometry relative="1" as="geometry"/>
                </mxCell>
                <mxCell id="277" value="" style="shadow=1;strokeWidth=1;rounded=1;absoluteArcSize=1;arcSize=20;" parent="1" vertex="1">
                    <mxGeometry x="847" y="-4380" width="170" height="50" as="geometry"/>
                </mxCell>
                <mxCell id="278" value="&lt;font style=&quot;font-size: 17px;&quot; color=&quot;#000000&quot;&gt;Categories&lt;/font&gt;" style="editableCssRules=.*;html=1;shape=image;verticalLabelPosition=middle;verticalAlign=middle;labelPosition=right;align=left;spacingLeft=20;part=1;points=[];imageAspect=0;image=data:image/svg+xml,PHN2ZyB4bWxucz0iaHR0cDovL3d3dy53My5vcmcvMjAwMC9zdmciIHhtbG5zOnY9Imh0dHBzOi8vdmVjdGEuaW8vbmFubyIgd2lkdGg9IjIwIiBoZWlnaHQ9IjE0LjE0MzAxOTY3NjIwODQ5NiIgdmlld0JveD0iMCAwLjAwMDQ4OTk2NjI0NTM2ODEyMzEgMjAgMTQuMTQzMDE5Njc2MjA4NDk2Ij4mI3hhOwk8c3R5bGUgdHlwZT0idGV4dC9jc3MiPiYjeGE7CS5zdDB7ZmlsbDojNDI4NWY0O30mI3hhOwkuc3Qxe2ZpbGw6IzY2OWRmNjt9JiN4YTsJPC9zdHlsZT4mI3hhOwk8cGF0aCBjbGFzcz0ic3QwIiBkPSJNMTAgMS40NzJhNS41OSA1LjU5IDAgMCAxIDQgMS42bDEtMWE3LjA3IDcuMDcgMCAwIDAtMTAgMGgwbDEgMWE1LjU5IDUuNTkgMCAwIDEgNC0xLjZ6bTAgMTEuMmE1LjU5IDUuNTkgMCAwIDEtNC0xLjZsLTEgMWE3LjA3IDcuMDcgMCAwIDAgMTAgMGgwbC0xLTFhNS41OSA1LjU5IDAgMCAxLTQgMS42eiIvPiYjeGE7CTxwYXRoIGNsYXNzPSJzdDEiIGQ9Ik0xMCAxMC4xNDJhMy4wNiAzLjA2IDAgMCAxLTMtMi4zNEgzLjExdjIuMzhMMCA3LjA3MmwzLjExLTMuMXYyLjM4SDdhMy4wNiAzLjA2IDAgMCAxIDMtMi4zNGgwYTMuMDYgMy4wNiAwIDAgMSAzIDIuMzRoMy45MXYtMi4zOUwyMCA3LjA3MmwtMy4xMSAzLjEydi0yLjM5SDEzYTMuMDYgMy4wNiAwIDAgMS0zIDIuMzR6bTAtNC42OGExLjYxIDEuNjEgMCAxIDAgMS42MSAxLjYxaDBBMS42MSAxLjYxIDAgMCAwIDEwIDUuNDYyeiIvPiYjeGE7PC9zdmc+;fillColor=#f8cecc;strokeColor=#b85450;" parent="277" vertex="1">
                    <mxGeometry width="30" height="21" relative="1" as="geometry">
                        <mxPoint x="15" y="19.5" as="offset"/>
                    </mxGeometry>
                </mxCell>
                <mxCell id="284" style="edgeStyle=orthogonalEdgeStyle;html=1;strokeColor=light-dark(#fbb622, #ededed);strokeWidth=2;" parent="1" source="282" target="44" edge="1">
                    <mxGeometry relative="1" as="geometry">
                        <mxPoint x="1215.0000000000005" y="-4648" as="targetPoint"/>
                    </mxGeometry>
                </mxCell>
                <UserObject label="" tooltip="" id="282">
                    <mxCell style="shadow=1;strokeWidth=1;rounded=1;absoluteArcSize=1;arcSize=23;glass=0;" parent="1" vertex="1">
                        <mxGeometry x="1010" y="-4262" width="170" height="52" as="geometry"/>
                    </mxCell>
                </UserObject>
                <mxCell id="283" value="&lt;font style=&quot;font-size: 17px;&quot; color=&quot;#000000&quot;&gt;Template&lt;/font&gt;" style="editableCssRules=.*;html=1;shape=image;verticalLabelPosition=middle;verticalAlign=middle;labelPosition=right;align=left;spacingLeft=20;part=1;points=[];imageAspect=0;image=data:image/svg+xml,PHN2ZyB4bWxucz0iaHR0cDovL3d3dy53My5vcmcvMjAwMC9zdmciIHhtbG5zOnY9Imh0dHBzOi8vdmVjdGEuaW8vbmFubyIgd2lkdGg9IjIwIiBoZWlnaHQ9IjE0LjE0MzAxOTY3NjIwODQ5NiIgdmlld0JveD0iMCAwLjAwMDQ4OTk2NjI0NTM2ODEyMzEgMjAgMTQuMTQzMDE5Njc2MjA4NDk2Ij4mI3hhOwk8c3R5bGUgdHlwZT0idGV4dC9jc3MiPiYjeGE7CS5zdDB7ZmlsbDojNDI4NWY0O30mI3hhOwkuc3Qxe2ZpbGw6IzY2OWRmNjt9JiN4YTsJPC9zdHlsZT4mI3hhOwk8cGF0aCBjbGFzcz0ic3QwIiBkPSJNMTAgMS40NzJhNS41OSA1LjU5IDAgMCAxIDQgMS42bDEtMWE3LjA3IDcuMDcgMCAwIDAtMTAgMGgwbDEgMWE1LjU5IDUuNTkgMCAwIDEgNC0xLjZ6bTAgMTEuMmE1LjU5IDUuNTkgMCAwIDEtNC0xLjZsLTEgMWE3LjA3IDcuMDcgMCAwIDAgMTAgMGgwbC0xLTFhNS41OSA1LjU5IDAgMCAxLTQgMS42eiIvPiYjeGE7CTxwYXRoIGNsYXNzPSJzdDEiIGQ9Ik0xMCAxMC4xNDJhMy4wNiAzLjA2IDAgMCAxLTMtMi4zNEgzLjExdjIuMzhMMCA3LjA3MmwzLjExLTMuMXYyLjM4SDdhMy4wNiAzLjA2IDAgMCAxIDMtMi4zNGgwYTMuMDYgMy4wNiAwIDAgMSAzIDIuMzRoMy45MXYtMi4zOUwyMCA3LjA3MmwtMy4xMSAzLjEydi0yLjM5SDEzYTMuMDYgMy4wNiAwIDAgMS0zIDIuMzR6bTAtNC42OGExLjYxIDEuNjEgMCAxIDAgMS42MSAxLjYxaDBBMS42MSAxLjYxIDAgMCAwIDEwIDUuNDYyeiIvPiYjeGE7PC9zdmc+;fillColor=#f8cecc;strokeColor=#b85450;" parent="282" vertex="1">
                    <mxGeometry width="30" height="21" relative="1" as="geometry">
                        <mxPoint x="15" y="19.5" as="offset"/>
                    </mxGeometry>
                </mxCell>
                <mxCell id="303" style="edgeStyle=orthogonalEdgeStyle;html=1;strokeWidth=2;fillColor=#647687;strokeColor=#314354;" parent="1" source="285" target="43" edge="1">
                    <mxGeometry relative="1" as="geometry">
                        <Array as="points">
                            <mxPoint x="1261" y="-3979"/>
                        </Array>
                    </mxGeometry>
                </mxCell>
                <mxCell id="285" value="" style="strokeColor=#36393d;shadow=1;strokeWidth=2;rounded=1;absoluteArcSize=1;arcSize=14;fillColor=light-dark(#48d63d, #182e44);gradientColor=none;" parent="1" vertex="1">
                    <mxGeometry x="1203" y="-3920.3" width="130" height="56.3" as="geometry"/>
                </mxCell>
                <mxCell id="286" value="&lt;font style=&quot;font-size: 17px;&quot;&gt;Inngest&lt;/font&gt;" style="editableCssRules=.*;html=1;fontColor=#999999;shape=image;verticalLabelPosition=middle;verticalAlign=middle;labelPosition=right;align=left;spacingLeft=20;part=1;points=[];imageAspect=0;image=data:image/svg+xml,PHN2ZyB4bWxucz0iaHR0cDovL3d3dy53My5vcmcvMjAwMC9zdmciIHhtbG5zOnY9Imh0dHBzOi8vdmVjdGEuaW8vbmFubyIgd2lkdGg9IjE5Ljk1MDAwMDc2MjkzOTQ1MyIgaGVpZ2h0PSIxMiIgdmlld0JveD0iMCAwIDE5Ljk1MDAwMDc2MjkzOTQ1MyAxMiI+Cgk8c3R5bGUgdHlwZT0idGV4dC9jc3MiPi5zdDAgeyBmaWxsOiBsaWdodC1kYXJrKHJnYigyNTUsIDI1NSwgMjU1KSwgcmdiKDE4LCAxOCwgMTgpKTsgfSAuc3QxIHsgZmlsbDogbGlnaHQtZGFyayhyZ2IoMCwgMCwgMCksIHJnYigyMzcsIDIzNywgMjM3KSk7IH0gPC9zdHlsZT4KCTxwYXRoIGNsYXNzPSJzdDAiIGQ9Ik02IDZsMSAyaDZsMS0yLTEtMkg3eiIgZmlsbD0iIzQyODVmNCIvPgoJPHBhdGggY2xhc3M9InN0MSIgZD0iTTcuNTEgNEg3TDYgNmg4bC0xLTJ6IiBmaWxsPSIjYWVjYmZhIi8+Cgk8cGF0aCBjbGFzcz0ic3QwIiBkPSJNMTYuOTcgNmwxLjUtMi4yNUwxNiAwaC0zeiIgZmlsbD0iIzQyODVmNCIvPgoJPHBhdGggY2xhc3M9InN0MSIgZD0iTTE2Ljk3IDZoMEwxMyAxMmgzbDMuOTUtNi0xLjQ4LTIuMjV6IiBmaWxsPSIjYWVjYmZhIi8+Cgk8cGF0aCBjbGFzcz0ic3QwIiBkPSJNMi45OCA2bC0xLjUgMi4yNUwzLjk1IDEyaDN6IiBmaWxsPSIjNDI4NWY0Ii8+Cgk8cGF0aCBjbGFzcz0ic3QxIiBkPSJNMi45OCA2aDBsMy45Ny02aC0zTDAgNmwxLjQ4IDIuMjV6IiBmaWxsPSIjYWVjYmZhIi8+Cjwvc3ZnPg==;imageBackground=none;" parent="285" vertex="1">
                    <mxGeometry width="30" height="18" relative="1" as="geometry">
                        <mxPoint x="15" y="21" as="offset"/>
                    </mxGeometry>
                </mxCell>
                <mxCell id="316" style="edgeStyle=orthogonalEdgeStyle;html=1;strokeWidth=2;strokeColor=light-dark(#49d63d, #EDEDED);" parent="1" source="287" target="285" edge="1">
                    <mxGeometry relative="1" as="geometry">
                        <Array as="points">
                            <mxPoint x="1180" y="-3808"/>
                            <mxPoint x="1180" y="-3892"/>
                        </Array>
                        <mxPoint x="1212.97" y="-3807.974358974359" as="sourcePoint"/>
                        <mxPoint x="1212.97" y="-3892.128205128205" as="targetPoint"/>
                    </mxGeometry>
                </mxCell>
                <mxCell id="287" value="" style="strokeColor=default;shadow=1;strokeWidth=2;rounded=1;absoluteArcSize=1;arcSize=16;horizontal=0;verticalAlign=middle;" parent="1" vertex="1">
                    <mxGeometry x="1203" y="-3823" width="120" height="50" as="geometry"/>
                </mxCell>
                <mxCell id="288" value="&lt;font style=&quot;font-size: 13px;&quot;&gt;Client.js&lt;/font&gt;" style="editableCssRules=.*;html=1;fontColor=#999999;shape=image;verticalLabelPosition=middle;verticalAlign=middle;labelPosition=right;align=left;spacingLeft=20;part=1;points=[];imageAspect=0;image=data:image/svg+xml,PHN2ZyB4bWxucz0iaHR0cDovL3d3dy53My5vcmcvMjAwMC9zdmciIHhtbG5zOnY9Imh0dHBzOi8vdmVjdGEuaW8vbmFubyIgd2lkdGg9IjIwIiBoZWlnaHQ9IjE5Ljk4OTk5OTc3MTExODE2NCIgdmlld0JveD0iMCAwIDIwIDE5Ljk4OTk5OTc3MTExODE2NCI+JiN4YTsJPHN0eWxlIHR5cGU9InRleHQvY3NzIj4mI3hhOwkuc3Qwe2ZpbGw6IzQyODVmNDt9JiN4YTsJLnN0MXtmaWxsOiM2NjlkZjY7fSYjeGE7CS5zdDJ7ZmlsbDojYWVjYmZhO30mI3hhOwk8L3N0eWxlPiYjeGE7CTxwYXRoIGNsYXNzPSJzdDEiIGQ9Ik0zIDMuOTlMMCA2LjQydjcuMTNsMyAyLjQ0eiIvPiYjeGE7CTxwYXRoIGNsYXNzPSJzdDAiIGQ9Ik0zIDMuOTlsLTMgNCAzLTJ6bS0zIDhsMyA0di0yeiIvPiYjeGE7CTxwYXRoIGNsYXNzPSJzdDIiIGQ9Ik0wIDE1Ljk5bDQgNCAyLTItNi02em0uMDEtOEw1Ljk5IDJsLTItMkwwIDMuOTl6Ii8+JiN4YTsJPHBhdGggY2xhc3M9InN0MSIgZD0iTTE3IDE2bDMtMi40MlY2LjQ0TDE3IDR6Ii8+JiN4YTsJPHBhdGggY2xhc3M9InN0MCIgZD0iTTE3IDE2bDMtNC0zIDJ6bTMtOGwtMy00djJ6Ii8+JiN4YTsJPGcgY2xhc3M9InN0MiI+JiN4YTsJCTxwYXRoIGQ9Ik0yMCA0bC00LTQtMiAyIDYgNnptLS4wMSA4bC01Ljk4IDUuOTkgMiAyTDIwIDE2eiIvPiYjeGE7CQk8Y2lyY2xlIGN4PSI2IiBjeT0iOS45OSIgcj0iMSIvPiYjeGE7CQk8Y2lyY2xlIGN4PSIxMCIgY3k9IjkuOTkiIHI9IjEiLz4mI3hhOwkJPGNpcmNsZSBjeD0iMTMuOTkiIGN5PSI5Ljk5IiByPSIxIi8+JiN4YTsJPC9nPiYjeGE7PC9zdmc+;" parent="287" vertex="1">
                    <mxGeometry width="30" height="20" relative="1" as="geometry">
                        <mxPoint x="15" y="18" as="offset"/>
                    </mxGeometry>
                </mxCell>
                <mxCell id="292" value="" style="strokeColor=default;shadow=1;strokeWidth=2;rounded=1;absoluteArcSize=1;arcSize=16;" parent="1" vertex="1">
                    <mxGeometry x="1188" y="-3747.15" width="160" height="50" as="geometry"/>
                </mxCell>
                <mxCell id="293" value="&lt;font style=&quot;font-size: 17px;&quot;&gt;Function.js&lt;/font&gt;" style="editableCssRules=.*;html=1;fontColor=#999999;shape=image;verticalLabelPosition=middle;verticalAlign=middle;labelPosition=right;align=left;spacingLeft=20;part=1;points=[];imageAspect=0;image=data:image/svg+xml,PHN2ZyB4bWxucz0iaHR0cDovL3d3dy53My5vcmcvMjAwMC9zdmciIHhtbG5zOnY9Imh0dHBzOi8vdmVjdGEuaW8vbmFubyIgd2lkdGg9IjIwIiBoZWlnaHQ9IjE5Ljk4OTk5OTc3MTExODE2NCIgdmlld0JveD0iMCAwIDIwIDE5Ljk4OTk5OTc3MTExODE2NCI+Cgk8c3R5bGUgdHlwZT0idGV4dC9jc3MiPi5zdDAgeyBmaWxsOiB0cmFuc3BhcmVudDsgfSAuc3QxIHsgZmlsbDogdHJhbnNwYXJlbnQ7IH0gLnN0MiB7IGZpbGw6IHRyYW5zcGFyZW50OyB9IDwvc3R5bGU+Cgk8cGF0aCBjbGFzcz0ic3QxIiBkPSJNMyAzLjk5TDAgNi40MnY3LjEzbDMgMi40NHoiLz4KCTxwYXRoIGNsYXNzPSJzdDAiIGQ9Ik0zIDMuOTlsLTMgNCAzLTJ6bS0zIDhsMyA0di0yeiIvPgoJPHBhdGggY2xhc3M9InN0MiIgZD0iTTAgMTUuOTlsNCA0IDItMi02LTZ6bS4wMS04TDUuOTkgMmwtMi0yTDAgMy45OXoiLz4KCTxwYXRoIGNsYXNzPSJzdDEiIGQ9Ik0xNyAxNmwzLTIuNDJWNi40NEwxNyA0eiIvPgoJPHBhdGggY2xhc3M9InN0MCIgZD0iTTE3IDE2bDMtNC0zIDJ6bTMtOGwtMy00djJ6Ii8+Cgk8ZyBjbGFzcz0ic3QyIj4KCQk8cGF0aCBkPSJNMjAgNGwtNC00LTIgMiA2IDZ6bS0uMDEgOGwtNS45OCA1Ljk5IDIgMkwyMCAxNnoiLz4KCQk8Y2lyY2xlIGN4PSI2IiBjeT0iOS45OSIgcj0iMSIvPgoJCTxjaXJjbGUgY3g9IjEwIiBjeT0iOS45OSIgcj0iMSIvPgoJCTxjaXJjbGUgY3g9IjEzLjk5IiBjeT0iOS45OSIgcj0iMSIvPgoJPC9nPgo8L3N2Zz4=;" parent="292" vertex="1">
                    <mxGeometry width="30" height="24" relative="1" as="geometry">
                        <mxPoint x="15" y="18" as="offset"/>
                    </mxGeometry>
                </mxCell>
                <mxCell id="327" value="" style="sketch=0;html=1;aspect=fixed;strokeColor=none;shadow=0;fillColor=#3B8DF1;verticalAlign=top;labelPosition=center;verticalLabelPosition=bottom;shape=mxgraph.gcp2.capabilities" parent="292" vertex="1">
                    <mxGeometry x="10" y="10" width="39.475" height="30" as="geometry"/>
                </mxCell>
                <mxCell id="311" style="edgeStyle=orthogonalEdgeStyle;html=1;strokeWidth=2;fillColor=#647687;strokeColor=#314354;" parent="1" source="294" target="43" edge="1">
                    <mxGeometry relative="1" as="geometry">
                        <Array as="points">
                            <mxPoint x="1538" y="-3924.3"/>
                            <mxPoint x="1413" y="-3924.3"/>
                        </Array>
                    </mxGeometry>
                </mxCell>
                <mxCell id="294" value="" style="strokeColor=default;shadow=1;strokeWidth=2;rounded=1;absoluteArcSize=1;arcSize=16;fontStyle=1;aspect=fixed;" parent="1" vertex="1">
                    <mxGeometry x="1448" y="-3914.3" width="142" height="58.36" as="geometry"/>
                </mxCell>
                <mxCell id="295" value="&lt;font style=&quot;font-size: 17px;&quot;&gt;Prisma.js&lt;/font&gt;" style="editableCssRules=.*;html=1;fontColor=#999999;shape=image;verticalLabelPosition=middle;verticalAlign=middle;labelPosition=right;align=left;spacingLeft=20;part=1;points=[];imageAspect=0;image=data:image/svg+xml,PHN2ZyB4bWxucz0iaHR0cDovL3d3dy53My5vcmcvMjAwMC9zdmciIHhtbG5zOnY9Imh0dHBzOi8vdmVjdGEuaW8vbmFubyIgd2lkdGg9IjIwIiBoZWlnaHQ9IjE5Ljk4OTk5OTc3MTExODE2NCIgdmlld0JveD0iMCAwIDIwIDE5Ljk4OTk5OTc3MTExODE2NCI+Cgk8c3R5bGUgdHlwZT0idGV4dC9jc3MiPi5zdDAgeyBmaWxsOiB0cmFuc3BhcmVudDsgfSAuc3QxIHsgZmlsbDogdHJhbnNwYXJlbnQ7IH0gLnN0MiB7IGZpbGw6IHRyYW5zcGFyZW50OyB9IDwvc3R5bGU+Cgk8cGF0aCBjbGFzcz0ic3QxIiBkPSJNMyAzLjk5TDAgNi40MnY3LjEzbDMgMi40NHoiLz4KCTxwYXRoIGNsYXNzPSJzdDAiIGQ9Ik0zIDMuOTlsLTMgNCAzLTJ6bS0zIDhsMyA0di0yeiIvPgoJPHBhdGggY2xhc3M9InN0MiIgZD0iTTAgMTUuOTlsNCA0IDItMi02LTZ6bS4wMS04TDUuOTkgMmwtMi0yTDAgMy45OXoiLz4KCTxwYXRoIGNsYXNzPSJzdDEiIGQ9Ik0xNyAxNmwzLTIuNDJWNi40NEwxNyA0eiIvPgoJPHBhdGggY2xhc3M9InN0MCIgZD0iTTE3IDE2bDMtNC0zIDJ6bTMtOGwtMy00djJ6Ii8+Cgk8ZyBjbGFzcz0ic3QyIj4KCQk8cGF0aCBkPSJNMjAgNGwtNC00LTIgMiA2IDZ6bS0uMDEgOGwtNS45OCA1Ljk5IDIgMkwyMCAxNnoiLz4KCQk8Y2lyY2xlIGN4PSI2IiBjeT0iOS45OSIgcj0iMSIvPgoJCTxjaXJjbGUgY3g9IjEwIiBjeT0iOS45OSIgcj0iMSIvPgoJCTxjaXJjbGUgY3g9IjEzLjk5IiBjeT0iOS45OSIgcj0iMSIvPgoJPC9nPgo8L3N2Zz4=;" parent="294" vertex="1">
                    <mxGeometry width="30" height="24" relative="1" as="geometry">
                        <mxPoint x="15" y="18" as="offset"/>
                    </mxGeometry>
                </mxCell>
                <mxCell id="332" value="" style="sketch=0;html=1;aspect=fixed;strokeColor=none;shadow=0;fillColor=#3B8DF1;verticalAlign=top;labelPosition=center;verticalLabelPosition=bottom;shape=mxgraph.gcp2.data_increase" parent="294" vertex="1">
                    <mxGeometry x="13.117249999999995" y="13.156666666666668" width="25" height="32.05" as="geometry"/>
                </mxCell>
                <mxCell id="312" style="edgeStyle=orthogonalEdgeStyle;html=1;strokeWidth=2;fillColor=#647687;strokeColor=#314354;" parent="1" source="296" target="43" edge="1">
                    <mxGeometry relative="1" as="geometry">
                        <Array as="points">
                            <mxPoint x="1413" y="-3634.3"/>
                        </Array>
                    </mxGeometry>
                </mxCell>
                <mxCell id="296" value="" style="strokeColor=default;shadow=1;strokeWidth=2;rounded=1;absoluteArcSize=1;arcSize=14;" parent="1" vertex="1">
                    <mxGeometry x="1333" y="-3664" width="160" height="60" as="geometry"/>
                </mxCell>
                <mxCell id="297" value="&lt;font style=&quot;font-size: 17px;&quot;&gt;Arcjet.js&lt;/font&gt;" style="editableCssRules=.*;html=1;fontColor=#999999;shape=image;verticalLabelPosition=middle;verticalAlign=middle;labelPosition=right;align=left;spacingLeft=20;part=1;points=[];imageAspect=0;image=data:image/svg+xml,PHN2ZyB4bWxucz0iaHR0cDovL3d3dy53My5vcmcvMjAwMC9zdmciIHhtbG5zOnY9Imh0dHBzOi8vdmVjdGEuaW8vbmFubyIgd2lkdGg9IjIwIiBoZWlnaHQ9IjE5Ljk4OTk5OTc3MTExODE2NCIgdmlld0JveD0iMCAwIDIwIDE5Ljk4OTk5OTc3MTExODE2NCI+Cgk8c3R5bGUgdHlwZT0idGV4dC9jc3MiPi5zdDAgeyBmaWxsOiB0cmFuc3BhcmVudDsgfSAuc3QxIHsgZmlsbDogdHJhbnNwYXJlbnQ7IH0gLnN0MiB7IGZpbGw6IHRyYW5zcGFyZW50OyB9IDwvc3R5bGU+Cgk8cGF0aCBjbGFzcz0ic3QxIiBkPSJNMyAzLjk5TDAgNi40MnY3LjEzbDMgMi40NHoiLz4KCTxwYXRoIGNsYXNzPSJzdDAiIGQ9Ik0zIDMuOTlsLTMgNCAzLTJ6bS0zIDhsMyA0di0yeiIvPgoJPHBhdGggY2xhc3M9InN0MiIgZD0iTTAgMTUuOTlsNCA0IDItMi02LTZ6bS4wMS04TDUuOTkgMmwtMi0yTDAgMy45OXoiLz4KCTxwYXRoIGNsYXNzPSJzdDEiIGQ9Ik0xNyAxNmwzLTIuNDJWNi40NEwxNyA0eiIvPgoJPHBhdGggY2xhc3M9InN0MCIgZD0iTTE3IDE2bDMtNC0zIDJ6bTMtOGwtMy00djJ6Ii8+Cgk8ZyBjbGFzcz0ic3QyIj4KCQk8cGF0aCBkPSJNMjAgNGwtNC00LTIgMiA2IDZ6bS0uMDEgOGwtNS45OCA1Ljk5IDIgMkwyMCAxNnoiLz4KCQk8Y2lyY2xlIGN4PSI2IiBjeT0iOS45OSIgcj0iMSIvPgoJCTxjaXJjbGUgY3g9IjEwIiBjeT0iOS45OSIgcj0iMSIvPgoJCTxjaXJjbGUgY3g9IjEzLjk5IiBjeT0iOS45OSIgcj0iMSIvPgoJPC9nPgo8L3N2Zz4=;" parent="296" vertex="1">
                    <mxGeometry width="30" height="24" relative="1" as="geometry">
                        <mxPoint x="15" y="18" as="offset"/>
                    </mxGeometry>
                </mxCell>
                <mxCell id="328" value="" style="sketch=0;html=1;aspect=fixed;strokeColor=none;shadow=0;fillColor=#3B8DF1;verticalAlign=top;labelPosition=center;verticalLabelPosition=bottom;shape=mxgraph.gcp2.connected" parent="296" vertex="1">
                    <mxGeometry x="15" y="14" width="44.44" height="32" as="geometry"/>
                </mxCell>
                <mxCell id="314" style="edgeStyle=orthogonalEdgeStyle;html=1;strokeWidth=2;fillColor=#647687;strokeColor=#314354;" parent="1" source="298" target="43" edge="1">
                    <mxGeometry relative="1" as="geometry">
                        <Array as="points">
                            <mxPoint x="1413" y="-3834.3"/>
                        </Array>
                    </mxGeometry>
                </mxCell>
                <mxCell id="298" value="" style="strokeColor=default;shadow=1;strokeWidth=2;rounded=1;absoluteArcSize=1;arcSize=14;" parent="1" vertex="1">
                    <mxGeometry x="1458" y="-3824.3" width="180" height="50.3" as="geometry"/>
                </mxCell>
                <mxCell id="299" value="&lt;font style=&quot;font-size: 17px;&quot;&gt;CheckUser.js&lt;/font&gt;" style="editableCssRules=.*;html=1;fontColor=#999999;shape=image;verticalLabelPosition=middle;verticalAlign=middle;labelPosition=right;align=left;spacingLeft=20;part=1;points=[];imageAspect=0;image=data:image/svg+xml,PHN2ZyB4bWxucz0iaHR0cDovL3d3dy53My5vcmcvMjAwMC9zdmciIHhtbG5zOnY9Imh0dHBzOi8vdmVjdGEuaW8vbmFubyIgd2lkdGg9IjIwIiBoZWlnaHQ9IjE5Ljk4OTk5OTc3MTExODE2NCIgdmlld0JveD0iMCAwIDIwIDE5Ljk4OTk5OTc3MTExODE2NCI+Cgk8c3R5bGUgdHlwZT0idGV4dC9jc3MiPi5zdDAgeyBmaWxsOiB0cmFuc3BhcmVudDsgfSAuc3QxIHsgZmlsbDogdHJhbnNwYXJlbnQ7IH0gLnN0MiB7IGZpbGw6IHRyYW5zcGFyZW50OyB9IDwvc3R5bGU+Cgk8cGF0aCBjbGFzcz0ic3QxIiBkPSJNMyAzLjk5TDAgNi40MnY3LjEzbDMgMi40NHoiLz4KCTxwYXRoIGNsYXNzPSJzdDAiIGQ9Ik0zIDMuOTlsLTMgNCAzLTJ6bS0zIDhsMyA0di0yeiIvPgoJPHBhdGggY2xhc3M9InN0MiIgZD0iTTAgMTUuOTlsNCA0IDItMi02LTZ6bS4wMS04TDUuOTkgMmwtMi0yTDAgMy45OXoiLz4KCTxwYXRoIGNsYXNzPSJzdDEiIGQ9Ik0xNyAxNmwzLTIuNDJWNi40NEwxNyA0eiIvPgoJPHBhdGggY2xhc3M9InN0MCIgZD0iTTE3IDE2bDMtNC0zIDJ6bTMtOGwtMy00djJ6Ii8+Cgk8ZyBjbGFzcz0ic3QyIj4KCQk8cGF0aCBkPSJNMjAgNGwtNC00LTIgMiA2IDZ6bS0uMDEgOGwtNS45OCA1Ljk5IDIgMkwyMCAxNnoiLz4KCQk8Y2lyY2xlIGN4PSI2IiBjeT0iOS45OSIgcj0iMSIvPgoJCTxjaXJjbGUgY3g9IjEwIiBjeT0iOS45OSIgcj0iMSIvPgoJCTxjaXJjbGUgY3g9IjEzLjk5IiBjeT0iOS45OSIgcj0iMSIvPgoJPC9nPgo8L3N2Zz4=;" parent="298" vertex="1">
                    <mxGeometry width="30" height="24" relative="1" as="geometry">
                        <mxPoint x="15" y="18" as="offset"/>
                    </mxGeometry>
                </mxCell>
                <mxCell id="331" value="" style="sketch=0;html=1;aspect=fixed;strokeColor=none;shadow=0;align=center;fillColor=#F4AF20;verticalAlign=top;labelPosition=center;verticalLabelPosition=bottom;shape=mxgraph.gcp2.check" parent="298" vertex="1">
                    <mxGeometry x="10" y="10.898333333333332" width="35.62916666666666" height="28.50333333333333" as="geometry"/>
                </mxCell>
                <mxCell id="313" style="edgeStyle=orthogonalEdgeStyle;html=1;strokeWidth=2;fillColor=#647687;strokeColor=#314354;" parent="1" source="300" target="43" edge="1">
                    <mxGeometry relative="1" as="geometry">
                        <Array as="points">
                            <mxPoint x="1413" y="-3774.3"/>
                            <mxPoint x="1413" y="-3774.3"/>
                        </Array>
                    </mxGeometry>
                </mxCell>
                <mxCell id="300" value="" style="strokeColor=default;shadow=1;strokeWidth=2;rounded=1;absoluteArcSize=1;arcSize=12;" parent="1" vertex="1">
                    <mxGeometry x="1448" y="-3750.3" width="160" height="56.3" as="geometry"/>
                </mxCell>
                <mxCell id="301" value="&lt;font style=&quot;font-size: 17px;&quot;&gt;Utils.js&lt;/font&gt;" style="editableCssRules=.*;html=1;fontColor=#999999;shape=image;verticalLabelPosition=middle;verticalAlign=middle;labelPosition=right;align=left;spacingLeft=20;part=1;points=[];imageAspect=0;image=data:image/svg+xml,PHN2ZyB4bWxucz0iaHR0cDovL3d3dy53My5vcmcvMjAwMC9zdmciIHhtbG5zOnY9Imh0dHBzOi8vdmVjdGEuaW8vbmFubyIgd2lkdGg9IjIwIiBoZWlnaHQ9IjE5Ljk4OTk5OTc3MTExODE2NCIgdmlld0JveD0iMCAwIDIwIDE5Ljk4OTk5OTc3MTExODE2NCI+Cgk8c3R5bGUgdHlwZT0idGV4dC9jc3MiPi5zdDAgeyBmaWxsOiB0cmFuc3BhcmVudDsgfSAuc3QxIHsgZmlsbDogdHJhbnNwYXJlbnQ7IH0gLnN0MiB7IGZpbGw6IHRyYW5zcGFyZW50OyB9IDwvc3R5bGU+Cgk8cGF0aCBjbGFzcz0ic3QxIiBkPSJNMyAzLjk5TDAgNi40MnY3LjEzbDMgMi40NHoiLz4KCTxwYXRoIGNsYXNzPSJzdDAiIGQ9Ik0zIDMuOTlsLTMgNCAzLTJ6bS0zIDhsMyA0di0yeiIvPgoJPHBhdGggY2xhc3M9InN0MiIgZD0iTTAgMTUuOTlsNCA0IDItMi02LTZ6bS4wMS04TDUuOTkgMmwtMi0yTDAgMy45OXoiLz4KCTxwYXRoIGNsYXNzPSJzdDEiIGQ9Ik0xNyAxNmwzLTIuNDJWNi40NEwxNyA0eiIvPgoJPHBhdGggY2xhc3M9InN0MCIgZD0iTTE3IDE2bDMtNC0zIDJ6bTMtOGwtMy00djJ6Ii8+Cgk8ZyBjbGFzcz0ic3QyIj4KCQk8cGF0aCBkPSJNMjAgNGwtNC00LTIgMiA2IDZ6bS0uMDEgOGwtNS45OCA1Ljk5IDIgMkwyMCAxNnoiLz4KCQk8Y2lyY2xlIGN4PSI2IiBjeT0iOS45OSIgcj0iMSIvPgoJCTxjaXJjbGUgY3g9IjEwIiBjeT0iOS45OSIgcj0iMSIvPgoJCTxjaXJjbGUgY3g9IjEzLjk5IiBjeT0iOS45OSIgcj0iMSIvPgoJPC9nPgo8L3N2Zz4=;" parent="300" vertex="1">
                    <mxGeometry width="30" height="24" relative="1" as="geometry">
                        <mxPoint x="15" y="18" as="offset"/>
                    </mxGeometry>
                </mxCell>
                <mxCell id="329" value="" style="sketch=0;html=1;aspect=fixed;strokeColor=none;shadow=0;fillColor=#3B8DF1;verticalAlign=top;labelPosition=center;verticalLabelPosition=bottom;shape=mxgraph.gcp2.arrow_cycle" parent="300" vertex="1">
                    <mxGeometry x="20" y="12.320316666666665" width="33.33898333333333" height="31.668749999999996" as="geometry"/>
                </mxCell>
                <mxCell id="315" style="edgeStyle=orthogonalEdgeStyle;html=1;strokeWidth=2;strokeColor=light-dark(#49d63d, #EDEDED);" parent="1" source="292" target="285" edge="1">
                    <mxGeometry relative="1" as="geometry">
                        <Array as="points">
                            <mxPoint x="1368" y="-3894.3"/>
                        </Array>
                    </mxGeometry>
                </mxCell>
                <mxCell id="324" style="edgeStyle=orthogonalEdgeStyle;html=1;strokeWidth=2;strokeColor=default;" parent="1" source="320" target="45" edge="1">
                    <mxGeometry relative="1" as="geometry">
                        <mxPoint x="1415" y="-4348.150000000001" as="targetPoint"/>
                        <Array as="points">
                            <mxPoint x="1320" y="-4240"/>
                            <mxPoint x="1320" y="-4240"/>
                        </Array>
                    </mxGeometry>
                </mxCell>
                <mxCell id="320" value="" style="strokeColor=default;shadow=1;strokeWidth=2;rounded=1;absoluteArcSize=1;arcSize=16;" parent="1" vertex="1">
                    <mxGeometry x="1250" y="-4270.300000000001" width="160" height="60" as="geometry"/>
                </mxCell>
                <mxCell id="321" value="&lt;span style=&quot;font-size: 17px;&quot;&gt;Migrations&lt;/span&gt;" style="editableCssRules=.*;html=1;fontColor=#999999;shape=image;verticalLabelPosition=middle;verticalAlign=middle;labelPosition=right;align=left;spacingLeft=20;part=1;points=[];imageAspect=0;image=data:image/svg+xml,PHN2ZyB4bWxucz0iaHR0cDovL3d3dy53My5vcmcvMjAwMC9zdmciIHhtbG5zOnY9Imh0dHBzOi8vdmVjdGEuaW8vbmFubyIgd2lkdGg9IjIwIiBoZWlnaHQ9IjE5Ljk4OTk5OTc3MTExODE2NCIgdmlld0JveD0iMCAwIDIwIDE5Ljk4OTk5OTc3MTExODE2NCI+JiN4YTsJPHN0eWxlIHR5cGU9InRleHQvY3NzIj4mI3hhOwkuc3Qwe2ZpbGw6IzQyODVmNDt9JiN4YTsJLnN0MXtmaWxsOiM2NjlkZjY7fSYjeGE7CS5zdDJ7ZmlsbDojYWVjYmZhO30mI3hhOwk8L3N0eWxlPiYjeGE7CTxwYXRoIGNsYXNzPSJzdDEiIGQ9Ik0zIDMuOTlMMCA2LjQydjcuMTNsMyAyLjQ0eiIvPiYjeGE7CTxwYXRoIGNsYXNzPSJzdDAiIGQ9Ik0zIDMuOTlsLTMgNCAzLTJ6bS0zIDhsMyA0di0yeiIvPiYjeGE7CTxwYXRoIGNsYXNzPSJzdDIiIGQ9Ik0wIDE1Ljk5bDQgNCAyLTItNi02em0uMDEtOEw1Ljk5IDJsLTItMkwwIDMuOTl6Ii8+JiN4YTsJPHBhdGggY2xhc3M9InN0MSIgZD0iTTE3IDE2bDMtMi40MlY2LjQ0TDE3IDR6Ii8+JiN4YTsJPHBhdGggY2xhc3M9InN0MCIgZD0iTTE3IDE2bDMtNC0zIDJ6bTMtOGwtMy00djJ6Ii8+JiN4YTsJPGcgY2xhc3M9InN0MiI+JiN4YTsJCTxwYXRoIGQ9Ik0yMCA0bC00LTQtMiAyIDYgNnptLS4wMSA4bC01Ljk4IDUuOTkgMiAyTDIwIDE2eiIvPiYjeGE7CQk8Y2lyY2xlIGN4PSI2IiBjeT0iOS45OSIgcj0iMSIvPiYjeGE7CQk8Y2lyY2xlIGN4PSIxMCIgY3k9IjkuOTkiIHI9IjEiLz4mI3hhOwkJPGNpcmNsZSBjeD0iMTMuOTkiIGN5PSI5Ljk5IiByPSIxIi8+JiN4YTsJPC9nPiYjeGE7PC9zdmc+;" parent="320" vertex="1">
                    <mxGeometry width="30" height="24" relative="1" as="geometry">
                        <mxPoint x="15" y="18" as="offset"/>
                    </mxGeometry>
                </mxCell>
                <mxCell id="325" style="edgeStyle=orthogonalEdgeStyle;html=1;strokeWidth=2;strokeColor=default;" parent="1" source="322" target="45" edge="1">
                    <mxGeometry relative="1" as="geometry">
                        <Array as="points">
                            <mxPoint x="1510" y="-4363"/>
                        </Array>
                    </mxGeometry>
                </mxCell>
                <mxCell id="322" value="" style="strokeColor=default;shadow=1;strokeWidth=2;rounded=1;absoluteArcSize=1;arcSize=16;aspect=fixed;spacingTop=-1;horizontal=1;fontFamily=Helvetica;points=[[0,0,0,0,0],[0,0.25,0,0,0],[0,0.5,0,0,0],[0,0.75,0,0,0],[0,1,0,0,0],[0.25,0,0,0,0],[0.25,1,0,0,0],[0.5,0,0,0,0],[0.5,1,0,0,0],[0.75,0,0,0,0],[0.75,1,0,0,0],[1,0,0,0,0],[1,0.25,0,0,0],[1,0.5,0,0,0],[1,0.75,0,0,0],[1,1,0,0,0]];" parent="1" vertex="1">
                    <mxGeometry x="1365" y="-4190.000000000001" width="200" height="52" as="geometry"/>
                </mxCell>
                <mxCell id="323" value="&lt;font style=&quot;font-size: 17px;&quot;&gt;Schema.Prisma&lt;/font&gt;" style="editableCssRules=.*;html=1;fontColor=#999999;shape=image;verticalLabelPosition=middle;verticalAlign=middle;labelPosition=right;align=left;spacingLeft=20;part=1;points=[];imageAspect=0;image=data:image/svg+xml,PHN2ZyB4bWxucz0iaHR0cDovL3d3dy53My5vcmcvMjAwMC9zdmciIHhtbG5zOnY9Imh0dHBzOi8vdmVjdGEuaW8vbmFubyIgd2lkdGg9IjIwIiBoZWlnaHQ9IjE5Ljk4OTk5OTc3MTExODE2NCIgdmlld0JveD0iMCAwIDIwIDE5Ljk4OTk5OTc3MTExODE2NCI+Cgk8c3R5bGUgdHlwZT0idGV4dC9jc3MiPi5zdDAgeyBmaWxsOiB0cmFuc3BhcmVudDsgfSAuc3QxIHsgZmlsbDogdHJhbnNwYXJlbnQ7IH0gLnN0MiB7IGZpbGw6IHRyYW5zcGFyZW50OyB9IDwvc3R5bGU+Cgk8cGF0aCBjbGFzcz0ic3QxIiBkPSJNMyAzLjk5TDAgNi40MnY3LjEzbDMgMi40NHoiLz4KCTxwYXRoIGNsYXNzPSJzdDAiIGQ9Ik0zIDMuOTlsLTMgNCAzLTJ6bS0zIDhsMyA0di0yeiIvPgoJPHBhdGggY2xhc3M9InN0MiIgZD0iTTAgMTUuOTlsNCA0IDItMi02LTZ6bS4wMS04TDUuOTkgMmwtMi0yTDAgMy45OXoiLz4KCTxwYXRoIGNsYXNzPSJzdDEiIGQ9Ik0xNyAxNmwzLTIuNDJWNi40NEwxNyA0eiIvPgoJPHBhdGggY2xhc3M9InN0MCIgZD0iTTE3IDE2bDMtNC0zIDJ6bTMtOGwtMy00djJ6Ii8+Cgk8ZyBjbGFzcz0ic3QyIj4KCQk8cGF0aCBkPSJNMjAgNGwtNC00LTIgMiA2IDZ6bS0uMDEgOGwtNS45OCA1Ljk5IDIgMkwyMCAxNnoiLz4KCQk8Y2lyY2xlIGN4PSI2IiBjeT0iOS45OSIgcj0iMSIvPgoJCTxjaXJjbGUgY3g9IjEwIiBjeT0iOS45OSIgcj0iMSIvPgoJCTxjaXJjbGUgY3g9IjEzLjk5IiBjeT0iOS45OSIgcj0iMSIvPgoJPC9nPgo8L3N2Zz4=;" parent="322" vertex="1">
                    <mxGeometry width="30" height="24" relative="1" as="geometry">
                        <mxPoint x="15" y="18" as="offset"/>
                    </mxGeometry>
                </mxCell>
                <mxCell id="333" value="" style="sketch=0;html=1;aspect=fixed;strokeColor=none;shadow=0;fillColor=#3B8DF1;verticalAlign=top;labelPosition=center;verticalLabelPosition=bottom;shape=mxgraph.gcp2.database_uploading" parent="322" vertex="1">
                    <mxGeometry x="10" y="10.88" width="36" height="30.24" as="geometry"/>
                </mxCell>
            </root>
        </mxGraphModel>
    </diagram>
</mxfile>